<svg width="71" height="71" viewBox="0 0 71 71" fill="none" xmlns="http://www.w3.org/2000/svg">
<rect x="0.5" y="0.5" width="70" height="70" rx="35" fill="#F2F2F2"/>
<g opacity="0.5" clip-path="url(#clip0_207_4673)">
<path d="M37.996 40.2093C37.9193 40.2088 37.8432 40.2235 37.7721 40.2526C37.701 40.2816 37.6364 40.3244 37.5819 40.3784L36.0827 41.8834V34.7318C36.0827 34.5771 36.0213 34.4287 35.9119 34.3193C35.8025 34.2099 35.6541 34.1484 35.4994 34.1484C35.3447 34.1484 35.1963 34.2099 35.0869 34.3193C34.9775 34.4287 34.916 34.5771 34.916 34.7318V41.8834L33.4169 40.3843C33.3078 40.2737 33.1593 40.2109 33.0039 40.2098C32.8486 40.2087 32.6992 40.2694 32.5885 40.3784C32.4779 40.4875 32.4152 40.6361 32.4141 40.7914C32.413 40.9467 32.4736 41.0962 32.5827 41.2068L35.4994 44.1234L38.416 41.2068C38.4983 41.1252 38.5544 41.0209 38.5772 40.9073C38.6 40.7937 38.5884 40.6759 38.544 40.5689C38.4996 40.4619 38.4243 40.3705 38.3277 40.3065C38.2312 40.2424 38.1177 40.2086 38.0019 40.2093H37.996Z" fill="black"/>
<path d="M36.5913 27.7372C37.1219 27.7375 37.6493 27.8201 38.1546 27.9822C38.2005 27.5935 38.2986 27.2129 38.4463 26.8505C37.8454 26.665 37.2201 26.5707 36.5913 26.5705C35.4142 26.5609 34.2595 26.8917 33.266 27.5229C32.2725 28.1542 31.4826 29.0592 30.9913 30.1288C29.5976 30.3016 28.3189 30.9891 27.4061 32.0562C26.4933 33.1234 26.0123 34.4933 26.0576 35.8968C26.1029 37.3004 26.6712 38.6364 27.6509 39.6425C28.6307 40.6486 29.9511 41.2521 31.353 41.3347C31.2195 40.9572 31.2195 40.5455 31.353 40.168C30.2285 40.0788 29.1796 39.5671 28.4171 38.7358C27.6547 37.9045 27.2354 36.8153 27.2435 35.6873C27.2517 34.5594 27.6866 33.4763 28.461 32.6561C29.2353 31.8359 30.2915 31.3393 31.4171 31.2663H31.808L31.9421 30.8988C32.301 29.9598 32.939 29.1533 33.7703 28.5881C34.6016 28.0228 35.5861 27.7258 36.5913 27.7372Z" fill="black"/>
<path d="M43.0376 32.8395C42.5255 32.9078 42.0053 32.8801 41.5034 32.7578C41.5034 32.8045 41.5034 32.8453 41.5034 32.892L41.4567 33.312L41.8359 33.487C42.5595 33.8201 43.1478 34.3902 43.5036 35.103C43.8594 35.8157 43.9614 36.6285 43.7928 37.4071C43.6242 38.1857 43.195 38.8834 42.5761 39.3851C41.9573 39.8867 41.1858 40.1623 40.3892 40.1661H39.6367C39.7702 40.5436 39.7702 40.9554 39.6367 41.3328H40.3834C41.3825 41.337 42.3566 41.0205 43.1624 40.4297C43.9681 39.8389 44.563 39.0051 44.8595 38.051C45.156 37.0969 45.1384 36.0728 44.8094 35.1294C44.4804 34.186 43.8573 33.3731 43.0317 32.8103L43.0376 32.8395Z" fill="black"/>
<path d="M42.4987 31.4193C44.1095 31.4193 45.4154 30.1134 45.4154 28.5026C45.4154 26.8918 44.1095 25.5859 42.4987 25.5859C40.8879 25.5859 39.582 26.8918 39.582 28.5026C39.582 30.1134 40.8879 31.4193 42.4987 31.4193Z" fill="black"/>
</g>
<defs>
<clipPath id="clip0_207_4673">
<rect width="21" height="21" fill="white" transform="translate(25 25)"/>
</clipPath>
</defs>
</svg>
