<svg width="38" height="38" viewBox="0 0 38 38" fill="none" xmlns="http://www.w3.org/2000/svg">
<rect width="38" height="38" rx="19" transform="matrix(-1 0 0 1 38 0)" fill="white"/>
<path fill-rule="evenodd" clip-rule="evenodd" d="M19.2872 16.8461C19.2872 15.8151 20.123 14.9794 21.1539 14.9794C22.1849 14.9794 23.0206 15.8151 23.0206 16.8461C23.0206 17.877 22.1849 18.7128 21.1539 18.7128C20.123 18.7128 19.2872 17.877 19.2872 16.8461ZM21.1539 15.8409C20.5988 15.8409 20.1488 16.291 20.1488 16.8461C20.1488 17.4012 20.5988 17.8512 21.1539 17.8512C21.709 17.8512 22.1591 17.4012 22.1591 16.8461C22.1591 16.291 21.709 15.8409 21.1539 15.8409ZM25.1946 22.1428C25.3181 21.8496 25.4181 21.5439 25.4922 21.2277C25.836 19.7625 25.836 18.2376 25.4922 16.7723C24.9959 14.6563 23.3437 13.0041 21.2277 12.5078C19.7625 12.1641 18.2376 12.1641 16.7723 12.5078C14.6563 13.0041 13.0041 14.6563 12.5078 16.7723C12.1641 18.2376 12.1641 19.7625 12.5078 21.2277C12.5442 21.3831 12.5869 21.5359 12.6355 21.686L13.0884 21.2333C14.7262 19.5957 17.3816 19.5957 19.0194 21.2333L20.2874 22.501L20.6198 22.1687C21.8934 20.8953 23.9378 20.9103 25.1946 22.1428ZM24.7758 22.9601L24.7574 22.938C23.8571 21.8578 22.2234 21.7837 21.2289 22.778L20.8967 23.1102L22.7067 24.9198C23.5436 24.4533 24.2495 23.784 24.7596 22.9765C24.7651 22.9711 24.7705 22.9656 24.7758 22.9601ZM21.8698 25.3014L18.4102 21.8425C17.1089 20.5414 14.9989 20.5414 13.6975 21.8425L12.994 22.5459C13.7513 24.0129 15.1205 25.1048 16.7723 25.4922C18.2376 25.836 19.7625 25.836 21.2277 25.4922C21.447 25.4408 21.6613 25.377 21.8698 25.3014Z" fill="#325D7B"/>
</svg>
