<svg width="339" height="55" viewBox="0 0 339 55" fill="none" xmlns="http://www.w3.org/2000/svg">
<path opacity="0.1" d="M256.701 55C254.954 55 250.734 54.3979 248.26 48.5775L239.965 29.3097C238.8 26.5667 234.653 24.0244 231.524 24.0244L187.864 24.1583C184.88 24.1583 0 21.9506 0 19.1407C0 16.3977 184.807 14.1231 187.864 14.1231L231.524 13.9893H231.596C239.237 13.9893 247.387 19.0737 250.225 25.6301L256.846 41.0175L271.836 6.09485C274.092 0.876511 278.094 0.140615 279.768 0.006812C281.442 -0.0600897 285.517 0.274341 288.354 5.22507L295.922 18.4048C297.232 20.6795 301.161 22.8872 303.999 22.8872H333.542C336.526 22.8872 339 25.1618 339 27.9048C339 30.6478 336.526 32.9224 333.542 32.9224H303.999C297.086 32.9224 289.519 28.7077 286.317 23.0879L280.641 13.1864L265.36 48.5775C262.668 54.331 258.375 55 256.701 55Z" fill="url(#paint0_linear_174_4858)"/>
<defs>
<linearGradient id="paint0_linear_174_4858" x1="182.406" y1="19.6814" x2="340.4" y2="26.7485" gradientUnits="userSpaceOnUse">
<stop stop-color="#FD6721"/>
<stop offset="1" stop-color="#FD6721" stop-opacity="0.14"/>
</linearGradient>
</defs>
</svg>
