<svg width="7" height="8" viewBox="0 0 7 8" fill="none" xmlns="http://www.w3.org/2000/svg">
<g clip-path="url(#clip0_177_933)">
<path d="M4.3563 7.08632C4.23139 7.36954 4.14882 7.6769 4.11719 7.99922L6.7606 7.42462C6.88552 7.14146 6.96802 6.83404 6.99972 6.51172L4.3563 7.08632Z" fill="#AEAEAE"/>
<path d="M6.76064 5.70396C6.88555 5.4208 6.96812 5.11338 6.99976 4.79106L4.94062 5.23888V4.378L6.76058 3.98252C6.88549 3.69936 6.96806 3.39194 6.99969 3.06962L4.94056 3.51706V0.421079C4.62503 0.602233 4.34482 0.843369 4.11704 1.1278V3.69611L3.29352 3.8751V0C2.978 0.18109 2.69778 0.422289 2.47 0.706723V4.05403L0.627373 4.45441C0.50246 4.73757 0.419828 5.04499 0.388133 5.36731L2.47 4.91491V5.99903L0.238872 6.48385C0.113959 6.76701 0.0313889 7.07443 -0.000244141 7.39675L2.33512 6.88926C2.52523 6.84883 2.68863 6.7339 2.79486 6.57573L3.22315 5.92644V5.92631C3.26761 5.85914 3.29352 5.77814 3.29352 5.69091V4.73592L4.11704 4.55693V6.27869L6.76058 5.70383L6.76064 5.70396Z" fill="#AEAEAE"/>
</g>
<defs>
<clipPath id="clip0_177_933">
<rect width="7" height="8" fill="white"/>
</clipPath>
</defs>
</svg>
