<svg width="33" height="33" viewBox="0 0 33 33" fill="none" xmlns="http://www.w3.org/2000/svg">
<path d="M11.8465 3.16668H21.1533C21.4633 3.1666 21.7009 3.16655 21.9086 3.18687C23.3857 3.33136 24.5948 4.21944 25.1074 5.41571H7.89233C8.40501 4.21944 9.61403 3.33136 11.0911 3.18687C11.2989 3.16655 11.5365 3.1666 11.8465 3.16668Z" fill="white"/>
<path d="M8.91402 6.7975C7.05984 6.7975 5.5395 7.91717 5.03212 9.40255C5.02155 9.43351 5.0114 9.46465 5.00171 9.49591C5.53258 9.33515 6.08507 9.23013 6.64435 9.15843C8.08486 8.97375 9.90531 8.97385 12.02 8.97397H21.2095C23.3241 8.97385 25.1447 8.97375 26.5852 9.15843C27.1444 9.23013 27.6969 9.33515 28.2277 9.49591C28.2181 9.46465 28.208 9.43351 28.1973 9.40255C27.69 7.91717 26.1696 6.7975 24.3155 6.7975H8.91402Z" fill="white"/>
<path fill-rule="evenodd" clip-rule="evenodd" d="M20.9369 10.5561H12.0633C7.56352 10.5561 5.31364 10.5561 4.04984 11.8718C2.78604 13.1876 3.08339 15.2204 3.6781 19.2861L4.24206 23.1415C4.70843 26.3299 4.94162 27.924 6.13787 28.8787C7.33412 29.8333 9.09848 29.8333 12.6272 29.8333H20.3729C23.9017 29.8333 25.6661 29.8333 26.8623 28.8787C28.0586 27.924 28.2917 26.3299 28.7581 23.1415L29.3221 19.2861C29.9167 15.2205 30.2141 13.1876 28.9503 11.8718C27.6865 10.5561 25.4366 10.5561 20.9369 10.5561ZM19.9417 21.5589C20.6862 21.0975 20.6862 19.9025 19.9417 19.4411L15.4462 16.6541C14.7226 16.2056 13.8334 16.7895 13.8334 17.7132V23.2868C13.8334 24.2105 14.7226 24.7944 15.4462 24.3459L19.9417 21.5589Z" fill="white"/>
</svg>
