<svg width="27" height="27" viewBox="0 0 27 27" fill="none" xmlns="http://www.w3.org/2000/svg">
<path fill-rule="evenodd" clip-rule="evenodd" d="M0.79289 26.2071C0.40237 25.8165 0.40237 25.1835 0.79289 24.7929L11.0857 14.5H6.375C5.82272 14.5 5.375 14.0523 5.375 13.5C5.375 12.9477 5.82272 12.5 6.375 12.5H13.5C14.0523 12.5 14.5 12.9477 14.5 13.5V20.6251C14.5 21.1773 14.0523 21.6251 13.5 21.6251C12.9477 21.6251 12.5 21.1773 12.5 20.6251V15.9143L2.2071 26.2071C1.81658 26.5976 1.18341 26.5976 0.79289 26.2071Z" fill="white"/>
<path d="M2.19112 20.5663L6.25963 16.4979C4.65628 16.4372 3.37508 15.1181 3.37508 13.5C3.37508 11.8432 4.71823 10.5 6.37508 10.5H13.5001C15.1569 10.5 16.5001 11.8432 16.5001 13.5V20.6251C16.5001 22.2819 15.1569 23.6249 13.5001 23.6249C11.8819 23.6249 10.5629 22.3439 10.5023 20.7404L6.43376 24.8089C8.48246 26.0917 10.9046 26.8333 13.5001 26.8333C20.8638 26.8333 26.8334 20.8637 26.8334 13.5C26.8334 6.13621 20.8638 0.166672 13.5001 0.166672C6.13628 0.166672 0.166748 6.13621 0.166748 13.5C0.166748 16.0955 0.908321 18.5176 2.19112 20.5663Z" fill="white"/>
</svg>
