<svg width="33" height="33" viewBox="0 0 33 33" fill="none" xmlns="http://www.w3.org/2000/svg">
<path fill-rule="evenodd" clip-rule="evenodd" d="M5.11937 5.1193C3.16675 7.07191 3.16675 10.2146 3.16675 16.5C3.16675 22.7853 3.16675 25.9281 5.11937 27.8807C7.07199 29.8333 10.2147 29.8333 16.5001 29.8333C22.7854 29.8333 25.9282 29.8333 27.8807 27.8807C29.8334 25.9281 29.8334 22.7853 29.8334 16.5C29.8334 10.2146 29.8334 7.07191 27.8807 5.1193C25.9282 3.16667 22.7854 3.16667 16.5001 3.16667C10.2147 3.16667 7.07199 3.16667 5.11937 5.1193ZM17.0301 19.218L20.3121 22.4999C20.6518 22.8397 20.8218 23.0096 21.0113 23.0881C21.2641 23.1928 21.5479 23.1928 21.8007 23.0881C21.9902 23.0096 22.1602 22.8397 22.5 22.4999C22.8398 22.1601 23.0097 21.9901 23.0882 21.8007C23.1929 21.5479 23.1929 21.264 23.0882 21.0112C23.0097 20.8217 22.8398 20.6517 22.5 20.312L19.2181 17.03L20.2203 16.0279C21.2463 15.0019 21.7593 14.4888 21.6382 13.9375C21.5171 13.386 20.8363 13.1352 19.4747 12.6336L14.9338 10.9606C12.2176 9.9599 10.8595 9.45955 10.1596 10.1595C9.45963 10.8595 9.95997 12.2176 10.9607 14.9337L12.6337 19.4747C13.1353 20.8363 13.3861 21.5171 13.9375 21.6381C14.4889 21.7592 15.0019 21.2463 16.0279 20.2203L17.0301 19.218Z" fill="white"/>
</svg>
