<svg width="31" height="19" viewBox="0 0 31 19" fill="none" xmlns="http://www.w3.org/2000/svg">
<path d="M15.3769 9.93078C14.6384 9.99232 13.9615 9.68462 13.223 9.43847C9.3461 8.14616 5.40764 6.85385 1.53071 5.56155C1.28456 5.43847 1.09994 5.37693 0.915328 5.19231C0.669174 5.0077 0.669174 4.76155 0.915328 4.57693C1.09994 4.45385 1.3461 4.26924 1.59225 4.2077C5.77687 2.97693 9.89994 1.74616 14.0846 0.453853C15.0076 0.14616 15.9923 0.14616 16.9769 0.453853C21.0999 1.68462 25.223 2.91539 29.3461 4.14616C29.5923 4.26924 29.8384 4.33078 30.0846 4.51539C30.3923 4.70001 30.3923 5.0077 30.0846 5.19231C29.8999 5.31539 29.7153 5.43847 29.4692 5.50001C25.3461 6.85385 21.223 8.26924 17.0384 9.62308C16.4846 9.86924 15.9923 9.93078 15.3769 9.93078Z" fill="white"/>
<path d="M7.19232 10.1154C6.57693 9.99231 6.45386 10.3615 6.45386 10.6692C6.45386 12.2692 6.45386 13.8077 6.45386 15.3462C6.45386 15.9 6.63847 16.2077 7.0077 16.5769C7.13078 16.7 7.3154 16.8231 7.43847 16.9462C8.42309 17.6231 9.59232 18.0538 10.7615 18.3615C13.1 18.9769 15.4385 19.1 17.8385 18.7923C19.3769 18.6077 20.9154 18.1769 22.3308 17.5615C22.9462 17.2538 23.5616 16.9462 23.9923 16.4538C24.3 16.1462 24.4231 15.8385 24.3616 15.4077C24.4231 13.9308 24.4231 12.3923 24.4231 10.8538C24.4231 9.99231 23.8077 10.1154 23.5616 10.1769C21.4077 10.9154 19.1308 11.5923 16.9769 12.3308C15.8692 12.7 14.8231 12.7 13.7769 12.3308L7.19232 10.1154Z" fill="white"/>
<path d="M27.7462 8.70001C27.5616 8.76155 27.5 8.82309 27.5 9.06924C27.5 10.4846 27.5 11.8385 27.5 13.2539C27.5 13.3769 27.4385 13.5615 27.3769 13.6846C27.0693 14.4231 26.7616 15.1615 26.5154 15.9C26.2693 16.5769 26.3923 17.3154 26.8846 17.8077C27.0077 17.9923 27.2539 18.1769 27.4385 18.3C27.6231 18.4846 27.9308 18.5462 28.1769 18.6077C28.6077 18.6692 28.9769 18.4231 29.2846 18.1769C29.4077 18.0539 29.5923 17.9308 29.7154 17.7462C30.0846 17.2539 30.1462 16.6385 30.0231 16.0846C29.8385 15.2231 29.4693 14.4846 29.1 13.7462C28.9769 13.6231 28.9769 13.3769 28.9769 13.2539C28.9769 11.7154 28.9769 10.2385 28.9769 8.70001C28.9769 8.39232 28.7308 8.45386 28.6077 8.51539L27.7462 8.70001Z" fill="white"/>
</svg>
