<svg width="64" height="64" viewBox="0 0 64 64" fill="none" xmlns="http://www.w3.org/2000/svg">
<path fill-rule="evenodd" clip-rule="evenodd" d="M6.58578 57.4141C5.80474 56.6331 5.80474 55.3669 6.58578 54.5859L27.1715 34H17.75C16.6454 34 15.75 33.1045 15.75 32C15.75 30.8955 16.6454 30 17.75 30H32C33.1045 30 34 30.8955 34 32V46.2501C34 47.3547 33.1045 48.2501 32 48.2501C30.8955 48.2501 30 47.3547 30 46.2501V36.8285L9.41421 57.4141C8.63317 58.1952 7.36682 58.1952 6.58578 57.4141Z" fill="#9CD8D3"/>
<path d="M9.38273 46.1332L17.5197 37.9964C14.3131 37.875 11.7507 35.2369 11.7507 32.0007C11.7507 28.6871 14.4369 26.0007 17.7507 26.0007H32.0007C35.3143 26.0007 38.0007 28.6871 38.0007 32.0007V46.2508C38.0007 49.5644 35.3143 52.2505 32.0007 52.2505C28.7644 52.2505 26.1264 49.6884 26.005 46.4815L17.868 54.6185C21.9654 57.1841 26.8097 58.6673 32.0007 58.6673C46.7281 58.6673 58.6673 46.7281 58.6673 32.0007C58.6673 17.2731 46.7281 5.33398 32.0007 5.33398C17.2731 5.33398 5.33398 17.2731 5.33398 32.0007C5.33398 37.1916 6.81713 42.0359 9.38273 46.1332Z" fill="#9CD8D3"/>
</svg>
