<svg width="64" height="64" viewBox="0 0 64 64" fill="none" xmlns="http://www.w3.org/2000/svg">
<path d="M57.4964 28.6356L53.8697 24.4223C53.1764 23.6223 52.6164 22.1289 52.6164 21.0623V16.5289C52.6164 13.7023 50.2964 11.3823 47.4697 11.3823H42.9364C41.8964 11.3823 40.3764 10.8223 39.5764 10.1289L35.363 6.50227C33.523 4.92893 30.5097 4.92893 28.643 6.50227L24.4563 10.1556C23.6563 10.8223 22.1363 11.3823 21.0963 11.3823H16.4829C13.6563 11.3823 11.3363 13.7023 11.3363 16.5289V21.0889C11.3363 22.1289 10.7763 23.6223 10.1096 24.4223L6.50961 28.6623C4.96294 30.5023 4.96294 33.489 6.50961 35.329L10.1096 39.569C10.7763 40.369 11.3363 41.8623 11.3363 42.9023V47.4623C11.3363 50.289 13.6563 52.609 16.4829 52.609H21.0963C22.1363 52.609 23.6563 53.169 24.4563 53.8623L28.6697 57.489C30.5097 59.0623 33.523 59.0623 35.3897 57.489L39.6031 53.8623C40.403 53.169 41.8964 52.609 42.9631 52.609H47.4964C50.323 52.609 52.6431 50.289 52.6431 47.4623V42.929C52.6431 41.889 53.2031 40.369 53.8964 39.569L57.5231 35.3556C59.0697 33.5156 59.0697 30.4756 57.4964 28.6356ZM43.0964 26.9556L30.2164 39.8356C29.8431 40.209 29.3364 40.4223 28.8031 40.4223C28.2697 40.4223 27.763 40.209 27.3897 39.8356L20.9363 33.3823C20.1629 32.609 20.1629 31.329 20.9363 30.5556C21.7096 29.7823 22.9896 29.7823 23.7629 30.5556L28.8031 35.5956L40.2697 24.1289C41.043 23.3556 42.3231 23.3556 43.0964 24.1289C43.8697 24.9023 43.8697 26.1823 43.0964 26.9556Z" fill="#9CD8D3"/>
</svg>
