<svg width="64" height="64" viewBox="0 0 64 64" fill="none" xmlns="http://www.w3.org/2000/svg">
<path d="M32.0007 58.6673C46.7281 58.6673 58.6673 46.7281 58.6673 32.0007C58.6673 29.5847 58.346 27.2439 57.7439 25.0183C57.5164 24.1775 56.5305 23.8429 55.7415 24.2116C54.2001 24.9317 52.4807 25.334 50.6673 25.334C44.0399 25.334 38.6673 19.9614 38.6673 13.334C38.6673 11.5205 39.0695 9.80108 39.7897 8.2599C40.1585 7.47081 39.8239 6.48492 38.9831 6.25745C36.7575 5.65526 34.4167 5.33398 32.0007 5.33398C17.2731 5.33398 5.33398 17.2731 5.33398 32.0007C5.33398 36.2665 6.33564 40.2983 8.11654 43.874C8.58982 44.8241 8.74734 45.9103 8.47297 46.9356L6.88468 52.8719C6.19518 55.4487 8.55268 57.806 11.1296 57.1167L17.0657 55.5284C18.0911 55.254 19.1772 55.4116 20.1274 55.8847C23.703 57.6657 27.7348 58.6673 32.0007 58.6673Z" fill="#9CD8D3"/>
<path d="M50.668 21.334C55.0862 21.334 58.668 17.7523 58.668 13.334C58.668 8.91571 55.0862 5.33398 50.668 5.33398C46.2497 5.33398 42.668 8.91571 42.668 13.334C42.668 17.7523 46.2497 21.334 50.668 21.334Z" fill="#9CD8D3"/>
</svg>
