<svg width="64" height="64" viewBox="0 0 64 64" fill="none" xmlns="http://www.w3.org/2000/svg">
<path fill-rule="evenodd" clip-rule="evenodd" d="M11.7702 47.6241C12.7244 47.0678 13.949 47.3902 14.5054 48.3444C16.7103 52.1257 20.0813 54.9849 24.2383 56.8404C25.2469 57.2905 25.6997 58.4732 25.2495 59.482C24.7993 60.4905 23.6167 60.9433 22.608 60.4932C17.7773 58.3372 13.7245 54.9457 11.05 50.3593C10.4935 49.4052 10.816 48.1806 11.7702 47.6241Z" fill="#9CD8D3"/>
<path fill-rule="evenodd" clip-rule="evenodd" d="M50.4156 10.4592C47.7119 7.69788 43.8559 6.67938 40.081 7.75346C39.0186 8.05575 37.9124 7.43956 37.61 6.37716C37.3079 5.31476 37.9239 4.20844 38.9863 3.90615C44.1548 2.43551 49.5322 3.83956 53.2735 7.66066C54.0463 8.44988 54.033 9.71615 53.2439 10.4889C52.4546 11.2617 51.1884 11.2484 50.4156 10.4592Z" fill="#9CD8D3"/>
<path fill-rule="evenodd" clip-rule="evenodd" d="M29.8409 8.82301C29.2703 7.84413 27.6068 7.25051 25.9169 8.21624C24.2332 9.17845 23.9371 10.8746 24.498 11.8364L31.2332 23.386C31.7895 24.3402 31.4671 25.5648 30.5129 26.1212C29.5588 26.6777 28.3343 26.3552 27.7777 25.401L18.7976 10.0015C18.2268 9.02261 16.5633 8.42899 14.8735 9.39472C13.1899 10.3569 12.8937 12.053 13.4547 13.0149L23.5573 30.3393C24.1137 31.2934 23.7912 32.5182 22.8371 33.0745C21.8829 33.631 20.6583 33.3086 20.1019 32.3542L15.6118 24.6546C15.041 23.6757 13.3775 23.0821 11.6877 24.0478C10.0041 25.01 9.70796 26.706 10.2689 27.6678L20.3715 44.9924C24.662 52.35 35.2497 54.7377 44.2281 49.6062C53.2007 44.4785 56.39 34.2345 52.1095 26.894L45.3745 15.3443C44.8036 14.3654 43.1401 13.7718 41.4503 14.7375C39.7668 15.6997 39.4705 17.3958 40.0316 18.3577L44.5215 26.0574C44.7902 26.5183 44.8639 27.0673 44.7257 27.5825C44.5876 28.098 44.2495 28.5366 43.7863 28.8014C39.6729 31.1521 38.4124 35.6974 40.2132 38.7854C40.7697 39.7398 40.4473 40.9644 39.4929 41.5206C38.5388 42.0772 37.3143 41.7548 36.7577 40.8006C34.3239 36.6268 35.3073 31.6009 38.451 28.0489C39.33 27.0558 39.6308 25.6112 38.9628 24.4657L29.8409 8.82301Z" fill="#9CD8D3"/>
</svg>
