<svg width="44" height="54" viewBox="0 0 44 54" fill="none" xmlns="http://www.w3.org/2000/svg">
<path d="M5.1181 21.439L13.2838 10.3909C18.562 3.24938 21.2012 -0.321342 23.6636 0.433218C26.1258 1.1878 26.1258 5.5673 26.1258 14.3263V15.1522C26.1258 18.3114 26.1258 19.891 27.1354 20.8818L27.1887 20.9331C28.2199 21.9031 29.8639 21.9031 33.1519 21.9031C39.069 21.9031 42.0276 21.9031 43.0274 23.6975C43.0439 23.7271 43.0599 23.7572 43.0756 23.7873C44.0196 25.6097 42.3066 27.9273 38.8804 32.5625L30.7148 43.6105C25.4364 50.7519 22.7972 54.3228 20.3348 53.5681C17.8727 52.8135 17.8727 48.434 17.8727 39.6748L17.873 38.8495C17.873 35.69 17.873 34.1105 16.8634 33.1196L16.81 33.0684C15.7788 32.0985 14.1348 32.0985 10.8467 32.0985C4.9297 32.0985 1.97122 32.0985 0.971356 30.3039C0.954796 30.2743 0.938689 30.2444 0.923062 30.214C-0.0208045 28.3919 1.69216 26.0743 5.1181 21.439Z" fill="#9CD8D3"/>
</svg>
