<svg width="54" height="54" viewBox="0 0 54 54" fill="none" xmlns="http://www.w3.org/2000/svg">
<path fill-rule="evenodd" clip-rule="evenodd" d="M4.23924 4.23924C0.333984 8.14446 0.333984 14.4299 0.333984 27.0007C0.333984 39.5713 0.333984 45.8569 4.23924 49.762C8.14446 53.6673 14.4299 53.6673 27.0007 53.6673C39.5713 53.6673 45.8569 53.6673 49.762 49.762C53.6673 45.8569 53.6673 39.5713 53.6673 27.0007C53.6673 14.4299 53.6673 8.14446 49.762 4.23924C45.8569 0.333984 39.5713 0.333984 27.0007 0.333984C14.4299 0.333984 8.14446 0.333984 4.23924 4.23924ZM28.0607 32.4367L34.6247 39.0004C35.3041 39.6801 35.6441 40.0199 36.0231 40.1769C36.5287 40.3862 37.0964 40.3862 37.602 40.1769C37.9809 40.0199 38.3209 39.6801 39.0004 39.0004C39.6801 38.3209 40.0199 37.9809 40.1769 37.602C40.3862 37.0964 40.3862 36.5287 40.1769 36.0231C40.0199 35.6441 39.6801 35.3041 39.0004 34.6247L32.4367 28.0607L34.4412 26.0564C36.4932 24.0044 37.5191 22.9783 37.2769 21.8756C37.0348 20.7727 35.6732 20.2711 32.95 19.2678L23.8681 15.9218C18.4357 13.9204 15.7196 12.9197 14.3197 14.3197C12.9197 15.7196 13.9204 18.4357 15.9218 23.8681L19.2678 32.95C20.2711 35.6732 20.7727 37.0348 21.8756 37.2769C22.9783 37.5191 24.0044 36.4932 26.0564 34.4412L28.0607 32.4367Z" fill="#9CD8D3"/>
</svg>
