<svg width="64" height="64" viewBox="0 0 64 64" fill="none" xmlns="http://www.w3.org/2000/svg">
<path d="M42 5.3335C42 4.22894 41.1045 3.3335 40 3.3335C38.8955 3.3335 38 4.22894 38 5.3335V58.6668C38 59.7714 38.8955 60.6668 40 60.6668C41.1045 60.6668 42 59.7714 42 58.6668V53.3186C49.0291 53.245 52.9443 52.8076 55.5424 50.2092C58.6667 47.0852 58.6667 42.0567 58.6667 32.0002C58.6667 21.9435 58.6667 16.9152 55.5424 13.791C52.9443 11.1928 49.0291 10.7554 42 10.6817V5.3335Z" fill="#FD6721"/>
<path fill-rule="evenodd" clip-rule="evenodd" d="M8.45744 50.2094C11.5817 53.3337 16.6099 53.3337 26.6666 53.3337H34.6666V32.0003V10.667H26.6666C16.6099 10.667 11.5817 10.667 8.45744 13.7912C5.33325 16.9154 5.33325 21.9437 5.33325 32.0003C5.33325 42.0569 5.33325 47.0854 8.45744 50.2094ZM34.6666 32.0003C34.6666 30.5275 33.4727 29.3337 31.9999 29.3337C30.5271 29.3337 29.3333 30.5275 29.3333 32.0003C29.3333 33.4731 30.5271 34.667 31.9999 34.667C33.4727 34.667 34.6666 33.4731 34.6666 32.0003ZM23.9999 32.0003C23.9999 33.4731 22.806 34.667 21.3333 34.667C19.8605 34.667 18.6666 33.4731 18.6666 32.0003C18.6666 30.5275 19.8605 29.3337 21.3333 29.3337C22.806 29.3337 23.9999 30.5275 23.9999 32.0003Z" fill="#FD6721"/>
</svg>
