<svg width="24" height="24" viewBox="0 0 24 24" fill="none" xmlns="http://www.w3.org/2000/svg">
<path d="M6.11069 3.15205C6.43316 3.05136 6.76773 3 7.10456 3C8.72359 3 9.92309 4.42565 9.92308 6.03791V9.65441C9.92308 11.2667 8.72358 12.6923 7.10456 12.6923C6.76772 12.6923 6.43316 12.641 6.11069 12.5403L5.86418 12.4633C5.78002 12.437 5.69721 12.4079 5.61584 12.376C6.9001 14.9841 9.01591 17.0999 11.624 18.3842C11.5921 18.3028 11.563 18.22 11.5367 18.1358L11.4597 17.8893C11.359 17.5668 11.3077 17.2323 11.3077 16.8954C11.3077 15.2764 12.7333 14.0769 14.3456 14.0769H17.9621C19.5743 14.0769 21 15.2764 21 16.8954C21 17.2323 20.9486 17.5668 20.8479 17.8893L20.771 18.1358C20.3226 19.5717 19.0401 20.6116 17.506 20.882C16.6128 21.0393 15.6949 21.0394 14.8017 20.882C14.7665 20.8758 14.7315 20.8692 14.6966 20.8622C8.84285 19.7359 4.26404 15.1571 3.13782 9.30329C3.13083 9.26843 3.12424 9.23344 3.11805 9.19831C2.96065 8.3051 2.96065 7.38721 3.11805 6.494C3.38837 4.95989 4.42827 3.67739 5.86419 3.22902L6.11069 3.15205Z" fill="#325D7B"/>
<path d="M13.1129 4.5909C14.8867 4.0855 16.8182 4.50823 18.1549 5.84495C19.4917 7.18167 19.9144 9.11323 19.409 10.887C19.3042 11.2548 19.5174 11.6378 19.8851 11.7426C20.2528 11.8473 20.6358 11.6342 20.7406 11.2665C21.3728 9.04753 20.8532 6.5851 19.134 4.86588C17.4148 3.14666 14.9524 2.62706 12.7335 3.25928C12.3657 3.36405 12.1526 3.74708 12.2574 4.1148C12.3621 4.48251 12.7452 4.69567 13.1129 4.5909Z" fill="#325D7B"/>
<path d="M14.8462 7.10783C15.3133 7.01479 15.905 7.17167 16.3669 7.63356C16.8288 8.09545 16.9857 8.68714 16.8927 9.15428C16.818 9.52926 17.0614 9.89379 17.4364 9.96848C17.8114 10.0432 18.1759 9.79973 18.2506 9.42475C18.4416 8.46582 18.1065 7.41498 17.346 6.65449C16.5855 5.894 15.5347 5.5589 14.5757 5.74989C14.2008 5.82458 13.9573 6.18911 14.032 6.5641C14.1067 6.93908 14.4712 7.18252 14.8462 7.10783Z" fill="#325D7B"/>
</svg>
