<svg width="21" height="21" viewBox="0 0 21 21" fill="none" xmlns="http://www.w3.org/2000/svg">
<path d="M4.44048 13.9473C3.15254 12.6593 2.50857 12.0153 2.26895 11.1798C2.02932 10.3443 2.23411 9.45692 2.64367 7.68213L2.87987 6.65865C3.22443 5.16551 3.39672 4.41894 3.90795 3.90771C4.41918 3.39648 5.16576 3.22419 6.65889 2.87962L7.68237 2.64343C9.45717 2.23386 10.3446 2.02908 11.1801 2.26871C12.0156 2.50832 12.6596 3.1523 13.9475 4.44024L15.4722 5.96494C17.713 8.20576 18.8334 9.32617 18.8334 10.7184C18.8334 12.1107 17.713 13.2311 15.4722 15.4719C13.2313 17.7128 12.1109 18.8332 10.7187 18.8332C9.32642 18.8332 8.20601 17.7128 5.96518 15.4719L4.44048 13.9473Z" stroke="#325D7B" stroke-width="1.5"/>
<path d="M8.85121 9.07744C9.50208 8.42656 9.50208 7.37129 8.85121 6.72041C8.20033 6.06954 7.14506 6.06954 6.49418 6.72041C5.84331 7.37129 5.84331 8.42656 6.49419 9.07744C7.14506 9.72831 8.20033 9.72831 8.85121 9.07744Z" stroke="#325D7B" stroke-width="1.5"/>
<path d="M10.1182 15.9166L15.9341 10.1006" stroke="#325D7B" stroke-width="1.5" stroke-linecap="round"/>
</svg>
