<svg width="21" height="21" viewBox="0 0 21 21" fill="none" xmlns="http://www.w3.org/2000/svg">
<path d="M12.1205 12.3228L8.78713 8.98942M12.1205 12.3228L7.95508 16.4881C7.40621 17.037 6.73995 17.4703 5.97502 17.6023C5.20267 17.7355 4.2442 17.7798 3.78711 17.3228C3.33004 16.8657 3.37437 15.9072 3.50758 15.1348C3.63951 14.3699 4.07287 13.7037 4.62175 13.1548L8.78713 8.98942M12.1205 12.3228C12.1205 12.3228 14.6204 9.82275 12.9537 8.15609C11.2871 6.48942 8.78713 8.98942 8.78713 8.98942M3.41675 10.4998C3.41675 5.08317 5.08341 3.4165 10.5001 3.4165C15.9167 3.4165 17.5834 5.08317 17.5834 10.4998C17.5834 15.9165 15.9167 17.5832 10.5001 17.5832" stroke="#325D7B" stroke-width="1.5" stroke-linecap="round" stroke-linejoin="round"/>
</svg>
