<svg width="21" height="21" viewBox="0 0 21 21" fill="none" xmlns="http://www.w3.org/2000/svg">
<path d="M10.5001 18.8332C15.1024 18.8332 18.8334 15.1022 18.8334 10.4998C18.8334 5.89746 15.1024 2.1665 10.5001 2.1665C5.89771 2.1665 2.16675 5.89746 2.16675 10.4998C2.16675 11.8329 2.47976 13.0928 3.0363 14.2103C3.1842 14.5072 3.23342 14.8466 3.14768 15.167L2.65134 17.0221C2.43587 17.8273 3.17259 18.564 3.97787 18.3486L5.83291 17.8523C6.15336 17.7665 6.49276 17.8158 6.78969 17.9636C7.90706 18.5202 9.167 18.8332 10.5001 18.8332Z" stroke="#325D7B" stroke-width="1.5"/>
<path d="M7.16675 9.25H13.8334" stroke="#325D7B" stroke-width="1.5" stroke-linecap="round"/>
<path d="M7.16675 12.1665H11.7501" stroke="#325D7B" stroke-width="1.5" stroke-linecap="round"/>
</svg>
