<svg width="20" height="21" viewBox="0 0 20 21" fill="none" xmlns="http://www.w3.org/2000/svg">
<path d="M16.3015 6.33333C16.4921 5.24602 15.6553 4.25 14.5515 4.25H5.44832C4.34444 4.25 3.50777 5.24602 3.69828 6.33333" stroke="#325D7B" stroke-width="1.5"/>
<path d="M14.5832 4.24984C14.6069 4.03394 14.6187 3.92596 14.6189 3.8368C14.6208 2.98377 13.9782 2.26704 13.1301 2.17602C13.0414 2.1665 12.9328 2.1665 12.7157 2.1665H7.28416C7.06696 2.1665 6.95835 2.1665 6.86968 2.17602C6.02153 2.26704 5.37901 2.98377 5.38086 3.83679C5.38106 3.92596 5.39288 4.03392 5.41652 4.24984" stroke="#325D7B" stroke-width="1.5"/>
<path d="M12.1512 11.8464C12.6165 12.1349 12.6165 12.8817 12.1512 13.1702L9.3415 14.9119C8.88925 15.1922 8.3335 14.8274 8.3335 14.2501V10.7665C8.3335 10.1892 8.88925 9.82432 9.3415 10.1047L12.1512 11.8464Z" stroke="#325D7B" stroke-width="1.5"/>
<path d="M1.98634 11.9938C1.61465 9.35751 1.42881 8.03938 2.21868 7.1862C3.00856 6.33301 4.41473 6.33301 7.22707 6.33301H12.7731C15.5854 6.33301 16.9916 6.33301 17.7815 7.1862C18.5713 8.03938 18.3855 9.35751 18.0138 11.9938L17.6613 14.4938C17.3698 16.5613 17.2242 17.5949 16.4765 18.214C15.7288 18.833 14.6261 18.833 12.4206 18.833H7.57955C5.37409 18.833 4.27136 18.833 3.5237 18.214C2.77604 17.5949 2.6303 16.5613 2.33881 14.4938L1.98634 11.9938Z" stroke="#325D7B" stroke-width="1.5"/>
</svg>
