<svg width="204" height="204" viewBox="0 0 204 204" fill="none" xmlns="http://www.w3.org/2000/svg">
<path fill-rule="evenodd" clip-rule="evenodd" d="M11.5159 153.051V140.576H18.7375C22.2565 140.576 24.8065 143.065 24.8065 146.686C24.8065 150.297 22.2565 153.051 18.7375 153.051H11.5159ZM18.7375 150.868C20.9917 150.868 22.6339 149.134 22.6339 146.788C22.6339 144.432 20.9917 142.749 18.7375 142.749H13.6783V150.868H18.7375Z" fill="#FDA36C"/>
<path d="M38.1785 153.051L35.0165 149.583H30.3551V147.655H35.5469C37.1177 147.655 37.9337 146.768 37.9337 145.156C37.9337 143.544 37.0463 142.749 35.5469 142.749H28.7537V153.051H26.5913V140.576H35.5469C38.4029 140.576 40.0859 142.341 40.0859 145.115C40.0859 147.176 39.1169 148.634 37.5053 149.256L41.2691 153.051H38.1785Z" fill="#FDA36C"/>
<path d="M43.5438 153.184C42.891 153.184 42.4014 152.674 42.4014 152.021C42.4014 151.368 42.891 150.848 43.5438 150.848C44.217 150.848 44.727 151.368 44.727 152.021C44.727 152.674 44.217 153.184 43.5438 153.184Z" fill="#FDA36C"/>
<path d="M48.9192 143.922V153.051H46.8384V141.719C46.8384 140.913 47.2668 140.424 47.9604 140.424C48.2868 140.424 48.5622 140.536 48.8886 140.862L57.6912 149.604V140.475H59.7618V151.899C59.7618 152.725 59.313 153.204 58.6806 153.204C58.3236 153.204 57.9972 153.051 57.6912 152.735L48.9192 143.922Z" fill="#FDA36C"/>
<path d="M74.8783 153.051L73.0117 149.909H67.1059L68.1361 148.145H71.9611L69.1867 143.473L63.5257 153.051H61.0369L68.2075 141.107C68.4625 140.678 68.7889 140.403 69.2683 140.403C69.7477 140.403 70.0537 140.678 70.3189 141.107L77.5099 153.051H74.8783Z" fill="#FDA36C"/>
<path fill-rule="evenodd" clip-rule="evenodd" d="M78.8459 153.051V140.576H86.0675C89.5865 140.576 92.1467 143.065 92.1467 146.686C92.1467 150.297 89.5865 153.051 86.0675 153.051H78.8459ZM86.0675 150.868C88.3217 150.868 89.9639 149.134 89.9639 146.788C89.9639 144.432 88.3217 142.749 86.0675 142.749H81.0083V150.868H86.0675Z" fill="#FDA36C"/>
<path d="M105.264 153.051L103.397 149.909H97.4914L98.5216 148.145H102.347L99.5722 143.473L93.9112 153.051H91.4224L98.593 141.107C98.848 140.678 99.1744 140.403 99.6538 140.403C100.133 140.403 100.449 140.678 100.704 141.107L107.895 153.051H105.264Z" fill="#FDA36C"/>
<path d="M114.281 153.051V150.868H123.624C124.797 150.868 125.45 150.215 125.45 149.236C125.45 148.175 124.797 147.624 123.624 147.624H117.902C115.546 147.624 114.087 146.135 114.087 144.075C114.087 142.065 115.444 140.576 117.932 140.576H126.888V142.749H117.932C116.933 142.749 116.351 143.33 116.351 144.279C116.351 145.227 116.953 145.788 117.912 145.788H123.624C126.154 145.788 127.51 146.972 127.51 149.389C127.51 151.49 126.235 153.051 123.624 153.051H114.281Z" fill="#FDA36C"/>
<path d="M141.596 153.051L139.72 149.909H133.824L134.854 148.145H138.679L135.895 143.473L130.234 153.051H127.745L134.915 141.107C135.181 140.678 135.497 140.403 135.986 140.403C136.466 140.403 136.772 140.678 137.027 141.107L144.218 153.051H141.596Z" fill="#FDA36C"/>
<path d="M145.554 153.051V140.576H147.737V150.868H156.131V153.051H145.554Z" fill="#FDA36C"/>
<path d="M173.216 153.051L170.83 144.279L167.3 152.399C167.056 152.929 166.709 153.215 166.178 153.215C165.668 153.215 165.291 152.929 165.067 152.399L161.548 144.279L159.161 153.051H157.019L160.232 141.311C160.385 140.709 160.721 140.424 161.313 140.424C161.772 140.424 162.2 140.679 162.404 141.158L166.25 149.981L170.095 141.158C170.299 140.679 170.677 140.424 171.136 140.424C171.676 140.424 172.013 140.709 172.186 141.311L175.379 153.051H173.216Z" fill="#FDA36C"/>
<path d="M189.822 153.051L187.956 149.909H182.05L183.08 148.145H186.905L184.131 143.473L178.47 153.051H175.981L183.151 141.107C183.406 140.678 183.733 140.403 184.212 140.403C184.692 140.403 185.008 140.678 185.263 141.107L192.454 153.051H189.822Z" fill="#FDA36C"/>
<path d="M52.2341 171.115L50.4287 164.485L47.7563 170.615C47.5727 171.023 47.3177 171.237 46.9199 171.237C46.5221 171.237 46.2365 171.023 46.0733 170.615L43.4111 164.485L41.6057 171.115H39.9941L42.4115 162.241C42.5339 161.782 42.7889 161.568 43.2275 161.568C43.5845 161.568 43.9109 161.762 44.0639 162.119L46.9709 168.789L49.8779 162.119C50.0309 161.762 50.3165 161.568 50.6633 161.568C51.0713 161.568 51.3263 161.782 51.4589 162.241L53.8661 171.115H52.2341Z" fill="#325D7B"/>
<path fill-rule="evenodd" clip-rule="evenodd" d="M54.9575 171.115V161.68H63.3827V163.333H56.5895V169.463H63.3929V171.115H54.9575ZM57.7931 167.015V165.628H63.0257V167.015H57.7931Z" fill="#325D7B"/>
<path fill-rule="evenodd" clip-rule="evenodd" d="M64.8108 171.115V161.68H70.2678C72.93 161.68 74.8578 163.567 74.8578 166.301C74.8578 169.034 72.93 171.115 70.2678 171.115H64.8108ZM70.2678 169.463C71.9712 169.463 73.2156 168.157 73.2156 166.382C73.2156 164.597 71.9712 163.333 70.2678 163.333H66.4428V169.463H70.2678Z" fill="#325D7B"/>
<path d="M76.4898 171.218C76.0002 171.218 75.6228 170.83 75.6228 170.33C75.6228 169.841 76.0002 169.453 76.4898 169.453C76.9998 169.453 77.3874 169.841 77.3874 170.33C77.3874 170.83 76.9998 171.218 76.4898 171.218Z" fill="#325D7B"/>
<path fill-rule="evenodd" clip-rule="evenodd" d="M82.8342 171.115V161.68H91.2594V163.333H84.4764V169.463H91.2696V171.115H82.8342ZM85.6698 167.015V165.628H90.9024V167.015H85.6698Z" fill="#325D7B"/>
<path fill-rule="evenodd" clip-rule="evenodd" d="M92.6875 171.115V161.68H98.1445C100.807 161.68 102.734 163.567 102.734 166.301C102.734 169.034 100.807 171.115 98.1445 171.115H92.6875ZM98.1445 169.463C99.8479 169.463 101.092 168.157 101.092 166.382C101.092 164.597 99.8479 163.333 98.1445 163.333H94.3195V169.463H98.1445Z" fill="#325D7B"/>
<path d="M112.516 161.68H114.128V166.943C114.128 169.871 112.689 171.238 109.028 171.238C105.396 171.238 103.948 169.871 103.948 166.943V161.68H105.641V166.943C105.641 168.841 106.488 169.616 109.079 169.616C111.68 169.616 112.516 168.841 112.516 166.943V161.68Z" fill="#325D7B"/>
<path d="M116.127 171.218C115.637 171.218 115.26 170.83 115.26 170.33C115.26 169.841 115.637 169.453 116.127 169.453C116.627 169.453 117.025 169.841 117.025 170.33C117.025 170.83 116.627 171.218 116.127 171.218Z" fill="#325D7B"/>
<path d="M125.307 168.494V166.892H129.101C130.254 166.892 130.937 166.168 130.937 165.107C130.937 164.016 130.254 163.333 129.101 163.333H124.103V171.115H122.471V161.68H129.101C131.274 161.68 132.549 162.996 132.549 165.056C132.549 167.086 131.274 168.494 129.101 168.494H125.307Z" fill="#325D7B"/>
<path d="M133.722 171.115V161.68H135.364V169.463H141.709V171.115H133.722Z" fill="#325D7B"/>
<path d="M152.725 171.115L151.307 168.739H146.849L147.625 167.403H150.511L148.41 163.873L144.136 171.115H142.249L147.676 162.088C147.869 161.762 148.114 161.548 148.481 161.548C148.838 161.548 149.073 161.762 149.267 162.088L154.703 171.115H152.725Z" fill="#325D7B"/>
<path d="M157.07 171.115V163.333H153.49V161.68H162.292V163.333H158.712V171.115H157.07Z" fill="#325D7B"/>
<path d="M169.29 114.536C169.29 114.536 134.722 106.131 103.734 131.886C103.734 131.886 100.021 134.62 96.9919 131.182C96.9919 131.182 80.3251 116.464 55.2637 113.842C55.2637 113.842 47.0017 112.608 31.9873 114.393C31.9873 114.393 24.2761 112.608 28.4071 104.754C28.4071 104.754 33.2725 99.4196 61.7101 103.428C64.2703 103.795 72.6241 105.468 76.5409 106.917C83.0791 109.324 93.2077 113.771 100.705 120.319C100.705 120.319 125.358 98.2772 165.567 102.684C165.567 102.684 176.042 102.959 174.665 109.436C174.665 109.436 174.522 113.985 169.29 114.536Z" fill="#325D7B"/>
<path d="M132.651 101.409C144.534 99.2667 154.214 99.9502 158.447 100.46C159.936 100.634 161.497 100.603 161.752 100.419C164.608 98.4099 162.262 95.9721 162.262 95.9721C160.895 95.1867 156.356 94.0443 146.605 94.3197C145.513 94.3503 144.33 94.3911 143.055 94.4319C120.85 95.0949 100.909 110.293 100.909 110.293C100.021 109.528 95.8088 106.876 92.6672 104.928C90.6884 103.694 85.2212 100.889 83.273 100.113C60.8942 91.2189 40.178 95.4213 40.178 95.4213C37.6586 97.7367 38.9132 99.3585 39.9638 100.491C40.8716 101.48 43.2482 100.542 44.8598 100.328C47.6444 99.9603 51.0206 99.9603 51.0206 99.9603C71.237 99.5727 83.7116 105.734 90.6884 110.191C92.0348 111.048 93.218 111.823 94.2074 112.476C96.2678 113.843 98.1548 115.475 98.4914 115.74C101.327 118.076 102.408 116.301 102.408 116.301C102.408 116.301 122.135 103.306 132.651 101.409Z" fill="#9CD8D3"/>
<path d="M46.4509 92.6261C46.4509 92.6261 77.1325 87.0467 98.8177 106.467C98.8177 106.467 100.888 108.946 102.847 106.467C102.847 106.467 125.052 87.1487 155.009 92.8301C155.009 92.8301 156.754 92.8811 157.131 91.9223C157.325 91.4327 157.325 90.6779 156.244 89.5253C156.244 89.5253 126.082 83.4359 100.99 103.469C100.99 103.469 78.8869 84.2621 45.8287 89.4233C45.8287 89.4233 42.8401 91.5959 46.4509 92.6261Z" fill="#FDA36C"/>
<path d="M51.204 87.6689C51.204 87.6689 77.7852 82.1099 100.47 100.99C100.47 100.99 101.806 101.459 102.745 100.062C102.785 100.001 102.816 99.9905 102.979 99.8579C105.131 97.9403 122.288 83.7317 150.154 87.8729C150.154 87.8729 151.144 87.7199 150.96 87.0365C150.889 86.7611 150.96 86.3939 150.154 85.9145C150.154 85.9145 123.706 79.8149 100.99 98.9297C100.99 98.9297 81.6714 81.2633 51.204 86.0165C51.204 86.0165 49.3272 86.6795 51.204 87.6689Z" fill="#FDA36C"/>
<path d="M125.175 61.1287L118.188 68.0545C117.035 69.2173 115.158 69.2173 113.995 68.0545C112.843 66.9019 112.843 65.0251 113.995 63.8623L120.982 56.9365" fill="#325D7B"/>
<path d="M107.233 74.766C107.049 74.5824 107.131 74.1846 107.416 73.899L114.964 66.3816C115.25 66.096 115.637 66.0144 115.831 66.2082C116.015 66.3918 115.933 66.7794 115.648 67.0752L108.1 74.5824C107.814 74.8782 107.426 74.9598 107.233 74.766Z" fill="#325D7B"/>
<path d="M134.65 42.116L140.046 47.5118L146.747 40.8206L141.341 35.4248L134.65 42.116Z" fill="#9CD8D3"/>
<path d="M149.134 42.4626C148.808 42.789 148.288 42.789 147.961 42.4626L139.587 34.0476C139.261 33.7314 139.261 33.201 139.587 32.8746C139.913 32.5584 140.434 32.5584 140.76 32.8848L149.134 41.2896C149.461 41.616 149.461 42.1464 149.134 42.4626Z" fill="#9CD8D3"/>
<mask id="mask0_174_6251" style="mask-type:luminance" maskUnits="userSpaceOnUse" x="113" y="56" width="13" height="13">
<path d="M125.172 61.1321L118.19 68.0559C117.033 69.2136 115.156 69.2136 113.998 68.0559C112.84 66.8982 112.84 65.0214 113.998 63.8637L120.98 56.9399" fill="white"/>
</mask>
<g mask="url(#mask0_174_6251)">
<path opacity="0.4" d="M124.073 59.5267L117.096 66.4525C115.933 67.6153 114.056 67.6153 112.904 66.4525C111.741 65.2999 111.741 63.4231 112.904 62.2603L119.88 55.3345" fill="#447A99"/>
</g>
<path d="M141.352 49.4087L127.051 63.5969C124.675 65.9735 120.829 65.9735 118.463 63.5969C116.086 61.2305 116.086 57.3851 118.463 55.0085L132.763 40.8203" fill="#9CD8D3"/>
<path d="M134.161 54.4475L126.021 62.4953C124.195 64.3211 121.248 64.3211 119.422 62.4953C117.606 60.6797 117.606 57.7217 119.422 55.8959L121.033 54.3047" fill="#FDA36C"/>
<path d="M144.085 50.9896C143.647 51.4282 142.943 51.4282 142.504 50.9896L131.141 39.586C130.703 39.1474 130.703 38.4334 131.141 37.9948C131.58 37.5664 132.294 37.5664 132.733 38.005L144.095 49.4086C144.534 49.8472 144.534 50.551 144.085 50.9896Z" fill="#FDA36C"/>
<path d="M110.955 80.8353C110.955 80.8217 110.952 80.8115 110.945 80.8047C110.945 80.8047 110.945 80.8013 110.945 80.7945C110.68 80.2335 110.16 79.4685 109.099 78.4791L107.508 76.9287C107.508 76.9287 105.468 78.8769 104.825 79.5603C104.417 79.9887 103.989 80.5089 103.856 81.5289C103.836 81.6649 103.826 81.8009 103.826 81.9369C103.819 82.0525 103.815 82.1749 103.815 82.3041C103.815 82.3041 103.826 82.4061 103.866 82.5897C103.958 83.2119 104.213 83.7831 104.591 84.2625C105.019 84.8541 105.682 85.3947 106.712 85.5987C106.739 85.6055 106.773 85.6123 106.814 85.6191C107.032 85.6599 107.256 85.6803 107.487 85.6803C109.517 85.6803 111.159 84.0483 111.159 82.0287C111.159 82.0151 111.159 82.0015 111.159 81.9879C111.18 81.6819 111.149 81.2637 110.955 80.8353Z" fill="#FDA36C"/>
<mask id="mask1_174_6251" style="mask-type:luminance" maskUnits="userSpaceOnUse" x="103" y="76" width="9" height="10">
<path d="M107.509 76.9517C107.509 76.9517 105.469 78.8948 104.823 79.5771C104.321 80.1075 103.789 80.7614 103.819 82.322C103.819 82.322 104.058 85.079 106.716 85.6217C106.96 85.6716 108.287 85.74 109.006 85.3167C109.848 84.8189 110.891 84.0866 111.112 82.427C111.133 82.2648 111.28 81.5641 110.961 80.8511C110.709 80.2901 110.181 79.5068 109.098 78.497L107.509 76.9517Z" fill="white"/>
</mask>
<g mask="url(#mask1_174_6251)">
<path opacity="0.4" d="M101.867 79.958C101.867 81.9572 103.489 83.5688 105.488 83.5688C107.477 83.5688 109.099 81.9572 109.099 79.958C109.099 77.9588 107.477 76.3472 105.488 76.3472C103.489 76.3472 101.867 77.9588 101.867 79.958Z" fill="#FDA36C"/>
</g>
<path d="M132.651 44.7882C132.875 45.0126 132.896 45.339 132.712 45.5328C132.518 45.7164 132.182 45.6859 131.968 45.4615L130.927 44.421C130.703 44.1966 130.682 43.8601 130.876 43.6765C131.06 43.4827 131.396 43.5132 131.621 43.7376L132.651 44.7882Z" fill="#434C60"/>
<path d="M130.152 47.2774C130.377 47.5018 130.407 47.8384 130.213 48.022C130.03 48.2158 129.693 48.1852 129.469 47.9608L128.439 46.9102C128.214 46.6858 128.184 46.3492 128.377 46.1656C128.571 45.982 128.898 46.0126 129.122 46.237L130.152 47.2774Z" fill="#434C60"/>
<path d="M127.714 49.7253C127.939 49.9497 127.959 50.2863 127.775 50.4699C127.582 50.6535 127.245 50.6229 127.021 50.3985L125.99 49.3581C125.766 49.1337 125.746 48.7971 125.929 48.6135C126.123 48.4197 126.46 48.4503 126.674 48.6747L127.714 49.7253Z" fill="#434C60"/>
<path d="M125.205 52.2345C125.429 52.4589 125.45 52.7955 125.266 52.9791C125.072 53.1627 124.736 53.1321 124.511 52.9077L123.481 51.8673C123.257 51.6429 123.236 51.3063 123.42 51.1227C123.614 50.9289 123.95 50.9595 124.165 51.1839L125.205 52.2345Z" fill="#434C60"/>
<mask id="mask2_174_6251" style="mask-type:luminance" maskUnits="userSpaceOnUse" x="118" y="54" width="17" height="10">
<path d="M134.164 54.4466L126.02 62.4985C124.198 64.3202 121.244 64.3202 119.423 62.4985C117.601 60.6768 117.601 57.7229 119.423 55.9012L121.036 54.3008" fill="white"/>
</mask>
<g mask="url(#mask2_174_6251)">
<path opacity="0.4" d="M132.396 52.7849L124.257 60.8429C122.431 62.6585 119.473 62.6585 117.657 60.8429C115.831 59.0171 115.831 56.0693 117.657 54.2435L119.269 52.6421" fill="#FDA36C"/>
</g>
<path d="M122.757 54.6821C122.981 54.9065 123.002 55.2329 122.818 55.4267C122.624 55.6103 122.298 55.5797 122.074 55.3553L121.033 54.3149C120.819 54.0905 120.788 53.7539 120.982 53.5601C121.166 53.3765 121.503 53.4071 121.727 53.6315L122.757 54.6821Z" fill="#434C60"/>
<path d="M71.4817 73.1239L77.9179 79.5601C80.9779 82.6201 85.9759 82.6201 89.0257 79.5601C92.0857 76.5103 92.0857 71.5021 89.0257 68.4523L82.5895 62.0161L71.4817 73.1239Z" fill="#FDA36C"/>
<path d="M82.5793 62.0057L76.2451 55.6715C73.1851 52.6115 68.1871 52.6115 65.1373 55.6715C62.0773 58.7213 62.0773 63.7193 65.1373 66.7793L71.4715 73.1135L82.5793 62.0057Z" fill="#9CD8D3"/>
<path opacity="0.4" d="M79.458 65.1371L87.8526 73.5317C87.9954 73.6745 88.1892 73.7459 88.3728 73.7459C88.5666 73.7459 88.7502 73.6745 88.893 73.5317C89.1888 73.2461 89.1888 72.7769 88.893 72.4913L80.4984 64.0967L79.458 65.1371Z" fill="#FDA36C"/>
<path d="M80.4985 64.0966L72.6955 56.2936C72.4099 55.9978 71.9407 55.9978 71.6551 56.2936C71.3695 56.5792 71.3695 57.0484 71.6551 57.334L79.4581 65.137L80.4985 64.0966Z" fill="#FCFCFC"/>
<path d="M161.119 171.4C160.619 171.4 160.252 171.003 160.252 170.513C160.252 170.023 160.619 169.636 161.119 169.636C161.619 169.636 162.007 170.023 162.007 170.513C162.007 171.003 161.619 171.4 161.119 171.4Z" fill="#325D7B"/>
</svg>
