<svg width="216" height="41" viewBox="0 0 216 41" fill="none" xmlns="http://www.w3.org/2000/svg">
<path d="M57.5611 33.1746C57.5611 33.1746 43.5585 29.77 31.0061 40.2027C31.0061 40.2027 29.5022 41.3101 28.275 39.9176C28.275 39.9176 21.5237 33.9555 11.3719 32.8936C11.3719 32.8936 8.02518 32.3937 1.9432 33.1167C1.9432 33.1167 -1.18042 32.3937 0.492949 29.2122C0.492949 29.2122 2.46381 27.0513 13.9832 28.6751C15.0203 28.8238 18.4042 29.5014 19.9908 30.0881C22.6393 31.0632 26.7421 32.8647 29.779 35.5173C29.779 35.5173 39.7655 26.5885 56.053 28.3735C56.053 28.3735 60.2963 28.485 59.7385 31.1087C59.7385 31.1087 59.6807 32.9515 57.5611 33.1746Z" fill="#325D7B"/>
<path d="M42.7199 27.8569C47.5334 26.9893 51.4545 27.2661 53.1691 27.4727C53.7724 27.5429 54.4045 27.5305 54.5078 27.4562C55.6647 26.6422 54.7144 25.6547 54.7144 25.6547C54.1608 25.3366 52.3221 24.8738 48.3722 24.9854C47.93 24.9978 47.4508 25.0143 46.9343 25.0308C37.9394 25.2994 29.8618 31.4557 29.8618 31.4557C29.5023 31.1458 27.7959 30.0716 26.5233 29.2824C25.7217 28.7825 23.5071 27.6462 22.7179 27.3322C13.6528 23.7293 5.26119 25.4316 5.26119 25.4316C4.24064 26.3695 4.74885 27.0265 5.17442 27.4851C5.54215 27.8859 6.50485 27.5057 7.15767 27.419C8.28565 27.2702 9.65327 27.2702 9.65327 27.2702C17.8424 27.1132 22.8956 29.6088 25.7217 31.4144C26.2671 31.7615 26.7464 32.0755 27.1472 32.3399C27.9818 32.8936 28.7462 33.5547 28.8826 33.6621C30.0312 34.6083 30.4692 33.8893 30.4692 33.8893C30.4692 33.8893 38.46 28.6255 42.7199 27.8569Z" fill="#9CD8D3"/>
<path d="M7.80214 24.2995C7.80214 24.2995 20.2305 22.0395 29.0147 29.9064C29.0147 29.9064 29.8534 30.9104 30.6467 29.9064C30.6467 29.9064 39.6416 22.0808 51.7766 24.3822C51.7766 24.3822 52.4832 24.4028 52.6361 24.0145C52.7146 23.8161 52.7146 23.5104 52.2766 23.0435C52.2766 23.0435 40.0589 20.5768 29.8948 28.6916C29.8948 28.6916 20.9412 20.9115 7.5501 23.0022C7.5501 23.0022 6.33949 23.8822 7.80214 24.2995Z" fill="#FDA36C"/>
<path d="M9.72751 22.2915C9.72751 22.2915 20.4949 20.0396 29.684 27.6876C29.684 27.6876 30.2253 27.8776 30.6054 27.3116C30.6219 27.2868 30.6343 27.2827 30.7004 27.2289C31.5722 26.4522 38.5219 20.6966 49.8099 22.3741C49.8099 22.3741 50.2107 22.3121 50.1363 22.0353C50.1074 21.9237 50.1363 21.775 49.8099 21.5808C49.8099 21.5808 39.0962 19.11 29.8947 26.853C29.8947 26.853 22.0691 19.6967 9.72751 21.6221C9.72751 21.6221 8.96726 21.8907 9.72751 22.2915Z" fill="#FDA36C"/>
<path d="M39.6912 11.5406L36.8609 14.346C36.394 14.8171 35.6338 14.8171 35.1628 14.346C34.6959 13.8792 34.6959 13.1189 35.1628 12.6479L37.993 9.84241" fill="#325D7B"/>
<path d="M32.4234 17.0648C32.349 16.9904 32.3821 16.8293 32.4977 16.7136L35.5553 13.6684C35.671 13.5528 35.828 13.5197 35.9065 13.5982C35.9808 13.6726 35.9478 13.8296 35.8321 13.9494L32.7746 16.9904C32.6589 17.1102 32.5019 17.1433 32.4234 17.0648Z" fill="#325D7B"/>
<path d="M43.5297 3.83899L45.7154 6.0247L48.4299 3.31425L46.2401 1.12854L43.5297 3.83899Z" fill="#9CD8D3"/>
<path d="M49.3967 3.97942C49.2645 4.11164 49.0538 4.11164 48.9216 3.97942L45.5294 0.570708C45.3972 0.442623 45.3972 0.22777 45.5294 0.0955534C45.6616 -0.0325317 45.8723 -0.0325315 46.0046 0.0996854L49.3967 3.50427C49.529 3.63649 49.529 3.85134 49.3967 3.97942Z" fill="#9CD8D3"/>
<mask id="mask0_179_4594" style="mask-type:luminance" maskUnits="userSpaceOnUse" x="34" y="9" width="6" height="6">
<path d="M39.6904 11.5423L36.8622 14.3469C36.3932 14.8159 35.633 14.8159 35.164 14.3469C34.695 13.878 34.695 13.1177 35.164 12.6488L37.9922 9.84412" fill="white"/>
</mask>
<g mask="url(#mask0_179_4594)">
<path opacity="0.4" d="M39.2447 10.8919L36.4186 13.6974C35.9475 14.1684 35.1873 14.1684 34.7204 13.6974C34.2494 13.2305 34.2494 12.4702 34.7204 11.9992L37.5465 9.19373" fill="#447A99"/>
</g>
<path d="M46.2442 6.79316L40.4514 12.5405C39.4887 13.5032 37.931 13.5032 36.9725 12.5405C36.0098 11.5819 36.0098 10.0242 36.9725 9.06151L42.7652 3.31421" fill="#9CD8D3"/>
<path d="M43.3312 8.83421L40.0341 12.0942C39.2945 12.8338 38.1004 12.8338 37.3608 12.0942C36.6253 11.3587 36.6253 10.1605 37.3608 9.42092L38.0136 8.77637" fill="#FDA36C"/>
<path d="M47.3515 7.43356C47.1738 7.61123 46.8887 7.61123 46.7111 7.43356L42.1083 2.81424C41.9306 2.63657 41.9306 2.34734 42.1083 2.16968C42.2859 1.99614 42.5752 1.99614 42.7528 2.17381L47.3556 6.79314C47.5333 6.9708 47.5333 7.25589 47.3515 7.43356Z" fill="#FDA36C"/>
<path d="M33.9314 19.5231C33.9314 19.5176 33.93 19.5135 33.9273 19.5107C33.9273 19.5107 33.9273 19.5094 33.9273 19.5066C33.8198 19.2794 33.6091 18.9695 33.1794 18.5687L32.5349 17.9407C32.5349 17.9407 31.7085 18.7298 31.4482 19.0067C31.2829 19.1802 31.1094 19.3909 31.0557 19.8041C31.0474 19.8592 31.0433 19.9143 31.0433 19.9694C31.0405 20.0162 31.0392 20.0658 31.0392 20.1181C31.0392 20.1181 31.0433 20.1594 31.0598 20.2338C31.097 20.4858 31.2003 20.7172 31.3532 20.9114C31.5267 21.1511 31.7953 21.37 32.2126 21.4527C32.2236 21.4554 32.2374 21.4582 32.2539 21.4609C32.342 21.4775 32.4329 21.4857 32.5266 21.4857C33.3488 21.4857 34.014 20.8247 34.014 20.0066C34.014 20.0011 34.014 19.9955 34.014 19.99C34.0223 19.8661 34.0099 19.6967 33.9314 19.5231Z" fill="#FDA36C"/>
<mask id="mask1_179_4594" style="mask-type:luminance" maskUnits="userSpaceOnUse" x="31" y="17" width="4" height="5">
<path d="M32.5354 17.9502C32.5354 17.9502 31.7091 18.7373 31.4475 19.0137C31.2442 19.2286 31.0286 19.4934 31.0405 20.1256C31.0405 20.1256 31.1376 21.2424 32.2144 21.4622C32.3131 21.4825 32.8507 21.5101 33.142 21.3387C33.4828 21.137 33.9055 20.8404 33.9948 20.1681C34.0034 20.1024 34.0629 19.8186 33.9336 19.5298C33.8316 19.3025 33.6179 18.9852 33.1792 18.5762L32.5354 17.9502Z" fill="white"/>
</mask>
<g mask="url(#mask1_179_4594)">
<path opacity="0.4" d="M30.2501 19.1679C30.2501 19.9777 30.9071 20.6305 31.7169 20.6305C32.5226 20.6305 33.1796 19.9777 33.1796 19.1679C33.1796 18.358 32.5226 17.7052 31.7169 17.7052C30.9071 17.7052 30.2501 18.358 30.2501 19.1679Z" fill="#FDA36C"/>
</g>
<path d="M42.7199 4.92145C42.8108 5.01235 42.8191 5.14456 42.7447 5.22307C42.6662 5.29744 42.5299 5.28504 42.4431 5.19414L42.0216 4.7727C41.9307 4.6818 41.9225 4.54546 42.001 4.47108C42.0754 4.39258 42.2117 4.40497 42.3026 4.49587L42.7199 4.92145Z" fill="#434C60"/>
<path d="M41.7075 5.92963C41.7984 6.02053 41.8108 6.15688 41.7323 6.23125C41.6579 6.30975 41.5216 6.29736 41.4307 6.20646L41.0134 5.78089C40.9225 5.68999 40.9101 5.55364 40.9886 5.47927C41.0671 5.4049 41.1993 5.41729 41.2902 5.50819L41.7075 5.92963Z" fill="#434C60"/>
<path d="M40.7201 6.9212C40.811 7.0121 40.8192 7.14845 40.7449 7.22282C40.6664 7.29719 40.53 7.2848 40.4391 7.1939L40.0218 6.77246C39.9309 6.68156 39.9226 6.54521 39.997 6.47084C40.0755 6.39234 40.2119 6.40473 40.2986 6.49563L40.7201 6.9212Z" fill="#434C60"/>
<path d="M39.7037 7.93768C39.7946 8.02858 39.8028 8.16493 39.7285 8.2393C39.65 8.31368 39.5136 8.30128 39.4227 8.21038L39.0054 7.78894C38.9145 7.69804 38.9062 7.56169 38.9806 7.48732C39.0591 7.40882 39.1955 7.42121 39.2822 7.51211L39.7037 7.93768Z" fill="#434C60"/>
<mask id="mask2_179_4594" style="mask-type:luminance" maskUnits="userSpaceOnUse" x="36" y="8" width="8" height="5">
<path d="M43.3327 8.83386L40.0339 12.0955C39.2959 12.8334 38.0994 12.8334 37.3614 12.0955C36.6235 11.3576 36.6235 10.161 37.3614 9.42306L38.0151 8.77478" fill="white"/>
</mask>
<g mask="url(#mask2_179_4594)">
<path opacity="0.4" d="M42.6165 8.16075L39.3193 11.4249C38.5797 12.1603 37.3815 12.1603 36.6461 11.4249C35.9065 10.6853 35.9065 9.49118 36.6461 8.75159L37.2989 8.10291" fill="#FDA36C"/>
</g>
<path d="M38.7121 8.92925C38.803 9.02015 38.8112 9.15236 38.7368 9.23087C38.6583 9.30524 38.5261 9.29284 38.4352 9.20195L38.0138 8.7805C37.927 8.6896 37.9146 8.55325 37.9931 8.47475C38.0675 8.40038 38.2038 8.41277 38.2947 8.50367L38.7121 8.92925Z" fill="#434C60"/>
<path d="M17.9414 16.3995L20.5486 19.0067C21.7881 20.2462 23.8127 20.2462 25.0481 19.0067C26.2876 17.7713 26.2876 15.7426 25.0481 14.5072L22.4409 11.9L17.9414 16.3995Z" fill="#FDA36C"/>
<path d="M22.4369 11.8959L19.8711 9.33004C18.6316 8.09051 16.607 8.09051 15.3716 9.33004C14.1321 10.5654 14.1321 12.59 15.3716 13.8295L17.9374 16.3954L22.4369 11.8959Z" fill="#9CD8D3"/>
<path opacity="0.4" d="M21.1727 13.1644L24.5731 16.5648C24.631 16.6227 24.7095 16.6516 24.7838 16.6516C24.8623 16.6516 24.9367 16.6227 24.9946 16.5648C25.1144 16.4491 25.1144 16.2591 24.9946 16.1434L21.5941 12.7429L21.1727 13.1644Z" fill="#FDA36C"/>
<path d="M21.5942 12.743L18.4334 9.58218C18.3177 9.46235 18.1276 9.46235 18.0119 9.58218C17.8962 9.69787 17.8962 9.88793 18.0119 10.0036L21.1727 13.1644L21.5942 12.743Z" fill="#FCFCFC"/>
<path fill-rule="evenodd" clip-rule="evenodd" d="M75.2032 18.0956V8.40601H80.8125C83.5459 8.40601 85.5266 10.3392 85.5266 13.1518C85.5266 15.9565 83.5459 18.0956 80.8125 18.0956H75.2032ZM80.8125 16.4001C82.5635 16.4001 83.8391 15.0533 83.8391 13.231C83.8391 11.4008 82.5635 10.0936 80.8125 10.0936H76.8828V16.4001H80.8125Z" fill="#FDA36C"/>
<path d="M95.9134 18.0956L93.4573 15.4019H89.8366V13.9044H93.8693C95.0894 13.9044 95.7232 13.2152 95.7232 11.9634C95.7232 10.7116 95.034 10.0936 93.8693 10.0936H88.5927V18.0956H86.9131V8.40601H93.8693C96.0877 8.40601 97.395 9.77665 97.395 11.9317C97.395 13.5321 96.6423 14.665 95.3905 15.1483L98.314 18.0956H95.9134Z" fill="#FDA36C"/>
<path d="M100.081 18.1986C99.5737 18.1986 99.1934 17.8025 99.1934 17.2954C99.1934 16.7883 99.5737 16.3843 100.081 16.3843C100.604 16.3843 101 16.7883 101 17.2954C101 17.8025 100.604 18.1986 100.081 18.1986Z" fill="#FDA36C"/>
<path d="M104.256 11.0048V18.0957H102.64V9.29344C102.64 8.66753 102.973 8.28723 103.511 8.28723C103.765 8.28723 103.979 8.37439 104.232 8.62792L111.07 15.4178V8.32685H112.678V17.2004C112.678 17.8422 112.33 18.2145 111.838 18.2145C111.561 18.2145 111.307 18.0957 111.07 17.8501L104.256 11.0048Z" fill="#FDA36C"/>
<path d="M124.42 18.0957L122.97 15.6554H118.383L119.183 14.2848H122.154L119.999 10.6561L115.602 18.0957H113.668L119.238 8.81804C119.436 8.48528 119.69 8.27136 120.062 8.27136C120.435 8.27136 120.672 8.48528 120.878 8.81804L126.464 18.0957H124.42Z" fill="#FDA36C"/>
<path fill-rule="evenodd" clip-rule="evenodd" d="M127.502 18.0956V8.40601H133.111C135.844 8.40601 137.833 10.3392 137.833 13.1518C137.833 15.9565 135.844 18.0956 133.111 18.0956H127.502ZM133.111 16.4001C134.862 16.4001 136.138 15.0533 136.138 13.231C136.138 11.4008 134.862 10.0936 133.111 10.0936H129.181V16.4001H133.111Z" fill="#FDA36C"/>
<path d="M148.022 18.0957L146.572 15.6554H141.985L142.785 14.2848H145.756L143.601 10.6561L139.204 18.0957H137.271L142.84 8.81804C143.038 8.48528 143.292 8.27136 143.664 8.27136C144.037 8.27136 144.282 8.48528 144.48 8.81804L150.066 18.0957H148.022Z" fill="#FDA36C"/>
<path d="M155.025 18.0956V16.4001H162.283C163.194 16.4001 163.701 15.8931 163.701 15.1325C163.701 14.3085 163.194 13.8807 162.283 13.8807H157.838C156.008 13.8807 154.875 12.724 154.875 11.1235C154.875 9.56274 155.929 8.40601 157.862 8.40601H164.818V10.0936H157.862C157.085 10.0936 156.634 10.5452 156.634 11.282C156.634 12.0188 157.101 12.4546 157.846 12.4546H162.283C164.248 12.4546 165.301 13.3736 165.301 15.2513C165.301 16.8834 164.311 18.0956 162.283 18.0956H155.025Z" fill="#FDA36C"/>
<path d="M176.243 18.0957L174.785 15.6554H170.206L171.006 14.2848H173.977L171.814 10.6561L167.417 18.0957H165.484L171.054 8.81804C171.26 8.48528 171.505 8.27136 171.885 8.27136C172.258 8.27136 172.496 8.48528 172.694 8.81804L178.279 18.0957H176.243Z" fill="#FDA36C"/>
<path d="M179.317 18.0956V8.40601H181.013V16.4001H187.533V18.0956H179.317Z" fill="#FDA36C"/>
<path d="M200.804 18.0957L198.95 11.2821L196.208 17.5886C196.018 18.0006 195.749 18.2225 195.337 18.2225C194.941 18.2225 194.648 18.0006 194.473 17.5886L191.74 11.2821L189.886 18.0957H188.222L190.718 8.97652C190.837 8.50908 191.098 8.28723 191.558 8.28723C191.914 8.28723 192.247 8.48531 192.405 8.85768L195.392 15.7109L198.379 8.85768C198.538 8.48531 198.831 8.28723 199.187 8.28723C199.607 8.28723 199.869 8.50908 200.003 8.97652L202.483 18.0957H200.804Z" fill="#FDA36C"/>
<path d="M213.702 18.0957L212.252 15.6554H207.665L208.465 14.2848H211.436L209.281 10.6561L204.884 18.0957H202.951L208.521 8.81804C208.719 8.48528 208.972 8.27136 209.345 8.27136C209.717 8.27136 209.963 8.48528 210.161 8.81804L215.746 18.0957H213.702Z" fill="#FDA36C"/>
<path d="M106.831 32.1269L105.429 26.9771L103.353 31.7387C103.21 32.0556 103.012 32.222 102.703 32.222C102.394 32.222 102.172 32.0556 102.046 31.7387L99.9777 26.9771L98.5754 32.1269H97.3235L99.2013 25.2341C99.2963 24.8776 99.4944 24.7112 99.8351 24.7112C100.112 24.7112 100.366 24.8617 100.485 25.139L102.743 30.3205L105.001 25.139C105.12 24.8617 105.341 24.7112 105.611 24.7112C105.928 24.7112 106.126 24.8776 106.229 25.2341L108.099 32.1269H106.831Z" fill="#325D7B"/>
<path fill-rule="evenodd" clip-rule="evenodd" d="M108.946 32.127V24.7983H115.491V26.0818H110.214V30.8435H115.499V32.127H108.946ZM111.149 28.942V27.8645H115.213V28.942H111.149Z" fill="#325D7B"/>
<path fill-rule="evenodd" clip-rule="evenodd" d="M116.6 32.127V24.7983H120.839C122.906 24.7983 124.404 26.2641 124.404 28.3874C124.404 30.5107 122.906 32.127 120.839 32.127H116.6ZM120.839 30.8435C122.162 30.8435 123.128 29.8293 123.128 28.4508C123.128 27.0643 122.162 26.0818 120.839 26.0818H117.868V30.8435H120.839Z" fill="#325D7B"/>
<path d="M125.672 32.2062C125.291 32.2062 124.998 31.9052 124.998 31.5169C124.998 31.1366 125.291 30.8356 125.672 30.8356C126.068 30.8356 126.369 31.1366 126.369 31.5169C126.369 31.9052 126.068 32.2062 125.672 32.2062Z" fill="#325D7B"/>
<path fill-rule="evenodd" clip-rule="evenodd" d="M130.6 32.127V24.7983H137.144V26.0818H131.875V30.8435H137.152V32.127H130.6ZM132.802 28.942V27.8645H136.867V28.942H132.802Z" fill="#325D7B"/>
<path fill-rule="evenodd" clip-rule="evenodd" d="M138.253 32.127V24.7983H142.492C144.56 24.7983 146.057 26.2641 146.057 28.3874C146.057 30.5107 144.56 32.127 142.492 32.127H138.253ZM142.492 30.8435C143.815 30.8435 144.781 29.8293 144.781 28.4508C144.781 27.0643 143.815 26.0818 142.492 26.0818H139.521V30.8435H142.492Z" fill="#325D7B"/>
<path d="M153.655 24.7983H154.907V28.8865C154.907 31.1604 153.789 32.222 150.945 32.222C148.125 32.222 147 31.1604 147 28.8865V24.7983H148.315V28.8865C148.315 30.3602 148.972 30.9623 150.985 30.9623C153.005 30.9623 153.655 30.3602 153.655 28.8865V24.7983Z" fill="#325D7B"/>
<path d="M156.46 32.2062C156.079 32.2062 155.786 31.9052 155.786 31.5169C155.786 31.1366 156.079 30.8356 156.46 30.8356C156.848 30.8356 157.157 31.1366 157.157 31.5169C157.157 31.9052 156.848 32.2062 156.46 32.2062Z" fill="#325D7B"/>
<path d="M163.59 30.0908V28.8469H166.537C167.433 28.8469 167.964 28.2844 167.964 27.4604C167.964 26.6127 167.433 26.0818 166.537 26.0818H162.655V32.127H161.388V24.7983H166.537C168.225 24.7983 169.215 25.8204 169.215 27.4208C169.215 28.9974 168.225 30.0908 166.537 30.0908H163.59Z" fill="#325D7B"/>
<path d="M170.126 32.127V24.7983H171.402V30.8435H176.33V32.127H170.126Z" fill="#325D7B"/>
<path d="M184.887 32.127L183.785 30.281H180.323L180.925 29.2431H183.167L181.535 26.5018L178.216 32.127H176.75L180.965 25.1153C181.115 24.8618 181.306 24.6954 181.591 24.6954C181.868 24.6954 182.05 24.8618 182.201 25.1153L186.424 32.127H184.887Z" fill="#325D7B"/>
<path d="M188.262 32.127V26.0818H185.481V24.7983H192.318V26.0818H189.537V32.127H188.262Z" fill="#325D7B"/>
<path d="M191.407 32.3488C191.019 32.3488 190.734 32.0398 190.734 31.6595C190.734 31.2792 191.019 30.9781 191.407 30.9781C191.795 30.9781 192.096 31.2792 192.096 31.6595C192.096 32.0398 191.795 32.3488 191.407 32.3488Z" fill="#325D7B"/>
</svg>
