<svg width="21" height="21" viewBox="0 0 21 21" fill="none" xmlns="http://www.w3.org/2000/svg">
<path d="M8.12772 5.00682C9.18325 3.11328 9.711 2.1665 10.5001 2.1665C11.2892 2.1665 11.8169 3.11327 12.8724 5.00681L13.1455 5.4967C13.4455 6.03478 13.5954 6.30383 13.8293 6.48135C14.0632 6.65886 14.3543 6.72475 14.9368 6.85655L15.4672 6.97653C17.5168 7.4403 18.5417 7.67219 18.7856 8.45628C19.0294 9.24034 18.3307 10.0574 16.9333 11.6914L16.5718 12.1142C16.1747 12.5785 15.9762 12.8107 15.8868 13.0979C15.7976 13.3852 15.8276 13.6949 15.8876 14.3145L15.9422 14.8785C16.1535 17.0587 16.2592 18.1488 15.6208 18.6333C14.9824 19.1179 14.0228 18.6761 12.1037 17.7925L11.6072 17.5638C11.0618 17.3128 10.7892 17.1872 10.5001 17.1872C10.211 17.1872 9.93833 17.3128 9.393 17.5638L8.8965 17.7925C6.97732 18.6761 6.01773 19.1179 5.37937 18.6333C4.74102 18.1488 4.84665 17.0587 5.05792 14.8785L5.11257 14.3145C5.17261 13.6949 5.20262 13.3852 5.1133 13.0979C5.02398 12.8107 4.82544 12.5785 4.42835 12.1142L4.06683 11.6914C2.66946 10.0574 1.97077 9.24034 2.2146 8.45628C2.45843 7.67219 3.4833 7.4403 5.53303 6.97653L6.06332 6.85655C6.64579 6.72475 6.93702 6.65886 7.17087 6.48135C7.40471 6.30383 7.55469 6.03479 7.85464 5.4967L8.12772 5.00682Z" stroke="#325D7B" stroke-width="1.5"/>
</svg>
