<svg width="20" height="21" viewBox="0 0 20 21" fill="none" xmlns="http://www.w3.org/2000/svg">
<path d="M5.09224 3.12671C5.36097 3.0428 5.63977 3 5.92047 3C7.26966 3 8.26924 4.18804 8.26923 5.53159V8.54534C8.26923 9.88892 7.26965 11.0769 5.92047 11.0769C5.63977 11.0769 5.36097 11.0342 5.09224 10.9503L4.88682 10.8861C4.81668 10.8642 4.74767 10.8399 4.67987 10.8133C5.75008 12.9868 7.51326 14.7499 9.68667 15.8202C9.66008 15.7523 9.63583 15.6833 9.61392 15.6132L9.54975 15.4078C9.46583 15.139 9.42308 14.8603 9.42308 14.5795C9.42308 13.2303 10.6111 12.2308 11.9547 12.2308H14.9684C16.3119 12.2308 17.5 13.2303 17.5 14.5795C17.5 14.8603 17.4572 15.139 17.3733 15.4078L17.3092 15.6132C16.9355 16.8098 15.8667 17.6763 14.5883 17.9017C13.844 18.0328 13.0791 18.0328 12.3347 17.9017C12.3054 17.8965 12.2762 17.891 12.2472 17.8852C7.36904 16.9466 3.55337 13.1309 2.61485 8.25274C2.60902 8.22369 2.60353 8.19453 2.59837 8.16526C2.46721 7.42092 2.46721 6.65601 2.59837 5.91167C2.82364 4.63324 3.69023 3.56449 4.88683 3.19085L5.09224 3.12671Z" fill="#325D7B"/>
<path d="M10.9273 4.32575C12.4055 3.90459 14.015 4.25686 15.129 5.37079C16.243 6.48473 16.5952 8.09436 16.174 9.57248C16.0867 9.87898 16.2644 10.1981 16.5708 10.2855C16.8772 10.3727 17.1964 10.1951 17.2837 9.88873C17.8105 8.03961 17.3775 5.98759 15.9449 4.5549C14.5122 3.12222 12.4602 2.68922 10.6111 3.21607C10.3046 3.30338 10.127 3.62257 10.2144 3.929C10.3016 4.23543 10.6209 4.41306 10.9273 4.32575Z" fill="#325D7B"/>
<path d="M12.3719 6.42303C12.7611 6.34549 13.2542 6.47623 13.6391 6.86113C14.024 7.24604 14.1548 7.73912 14.0773 8.1284C14.015 8.44088 14.2179 8.74466 14.5304 8.8069C14.8429 8.86914 15.1466 8.66628 15.2089 8.35379C15.368 7.55468 15.0888 6.67898 14.455 6.04524C13.8213 5.4115 12.9456 5.13225 12.1464 5.29141C11.834 5.35365 11.6311 5.65743 11.6934 5.96992C11.7556 6.2824 12.0594 6.48527 12.3719 6.42303Z" fill="#325D7B"/>
</svg>
