<svg width="21" height="21" viewBox="0 0 21 21" fill="none" xmlns="http://www.w3.org/2000/svg">
<g clip-path="url(#clip0_266_1811)">
<path d="M13.2929 2.59844C13.4705 2.57523 13.6518 2.56363 13.8324 2.56363C13.8813 2.56363 13.9307 2.56426 13.9795 2.56668H13.9863C14.0918 2.56668 14.1791 2.48246 14.1828 2.37625C14.1864 2.26762 14.1016 2.17605 13.993 2.17238H13.9728H13.9704L13.9679 2.17176H13.9661H13.9648H13.9618H13.9612H13.9593C13.93 2.17113 13.9007 2.16992 13.8714 2.16992H13.8666H13.8659H13.8641H13.8611H13.8604H13.8593H13.858H13.8568H13.8556H13.8544H13.8532H13.852H13.8508H13.8496H13.8484H13.8471H13.8453H13.8447H13.8435H13.8423H13.8397H13.8373H13.8348H13.8323H13.8299H13.828H13.8274H13.8262H13.825H13.8232H13.8225H13.8207H13.8202H13.819H13.8178H13.8166H13.8159H13.8141H13.8135H13.8116H13.8104H13.8092H13.8086H13.8068H13.8043H13.8018H13.8H13.7994H13.7982H13.797H13.7951H13.7945H13.7927H13.792H13.7908H13.7896H13.7884H13.7878H13.7859H13.7853H13.7835H13.7823H13.7811H13.7805H13.7787H13.7768H13.7762H13.7738H13.7719H13.7713H13.7701H13.7689H13.7677H13.767L13.7652 2.17055H13.764H13.7628H13.7616H13.7604H13.7598H13.7579H13.7555H13.7548H13.753H13.7524H13.7512H13.7505H13.7487H13.7481H13.7463H13.7456H13.7444H13.7432L13.7421 2.17117H13.7409H13.7396H13.739H13.7372H13.736H13.7348H13.7336H13.7323H13.7317H13.7299H13.7274H13.725H13.7231H13.7225H13.7207H13.7201H13.7176H13.7164H13.7152H13.714H13.7128H13.7116H13.7109L13.7091 2.1718H13.7079H13.7067H13.7061H13.7042H13.7024H13.7018H13.6993H13.6968H13.6956L13.6944 2.17242H13.6932H13.692H13.6902H13.6895H13.6883H13.6871H13.6859H13.6853H13.6835H13.681H13.6798H13.6786H13.678H13.6768H13.6761H13.6749H13.6737H13.6719H13.6713L13.67 2.17305H13.6688H13.6676H13.6664H13.6652H13.6646H13.6627H13.6615H13.6603L13.6597 2.17367H13.6579H13.6554H13.6529H13.6505H13.6493H13.648H13.6468H13.6456H13.6438H13.6432H13.642H13.6407L13.6395 2.1743H13.6389H13.6371H13.6346H13.6321H13.6297H13.6279H13.6272H13.6249H13.623H13.6224L13.6212 2.17492H13.62H13.6188H13.6182H13.6163H13.6157H13.6139H13.6132H13.6114H13.6089H13.6065L13.6046 2.17555H13.604H13.6022H13.6016H13.6004H13.5991L13.5955 2.17617H13.5948H13.593H13.5905H13.5858H13.5834L13.5815 2.1768H13.5809H13.5772H13.576L13.5748 2.17742H13.5742H13.5723H13.5675H13.565H13.5625L13.5583 2.17805H13.5577H13.5564H13.5552L13.554 2.17867H13.5491H13.5468H13.5443L13.5394 2.1793H13.5376H13.537L13.5309 2.17973H13.5303H13.5284H13.526L13.5211 2.18035H13.5193H13.5186L13.5101 2.18098C13.4197 2.18707 13.3306 2.19625 13.2427 2.20723C13.1353 2.22066 13.0584 2.31953 13.0718 2.42758C13.0853 2.52707 13.1695 2.59969 13.2671 2.59969L13.2929 2.59844Z" fill="#325D7B"/>
<path d="M11.9172 2.60352C11.8879 2.60352 11.8592 2.60961 11.8317 2.62305C11.7646 2.65539 11.6987 2.68898 11.634 2.72437L11.6217 2.73047L11.6193 2.73168L11.6156 2.73352V2.73414L11.6138 2.73477H11.6133L11.6096 2.73723L11.6078 2.73844H11.6071L11.6059 2.73906V2.73969L11.6035 2.7409L11.6023 2.74152H11.601L11.5998 2.74273L11.5974 2.74395L11.5962 2.74516H11.595L11.5937 2.7457V2.74633L11.5913 2.74695V2.74758L11.5901 2.7482L11.5889 2.74883H11.5876L11.587 2.74945L11.5864 2.75008L11.5846 2.75129H11.5839L11.5827 2.7525H11.5821L11.5809 2.75312L11.5803 2.75375L11.5784 2.75437L11.5778 2.755L11.5766 2.75562L11.576 2.75625H11.5753L11.5741 2.75687L11.5717 2.75871L11.5705 2.75934H11.5698L11.5686 2.75996H11.568L11.5643 2.76242L11.5625 2.76363L11.5583 2.76586L11.5565 2.76707H11.5559L11.5504 2.77012C11.4704 2.81527 11.3929 2.86227 11.3166 2.91234C11.2251 2.97156 11.1994 3.09301 11.2587 3.18457C11.2959 3.24254 11.3594 3.2743 11.4241 3.2743C11.4607 3.2743 11.4979 3.26391 11.5308 3.24254C11.6816 3.14488 11.8403 3.05637 12.0026 2.97824C12.1003 2.93125 12.1418 2.81344 12.0948 2.71578C12.0613 2.645 11.9905 2.60352 11.9172 2.60352Z" fill="#325D7B"/>
<path d="M15.5597 2.50271L15.556 2.50088H15.5554L15.5536 2.50025L15.5475 2.49779L15.5408 2.49475H15.5401C15.506 2.48131 15.4718 2.46787 15.4364 2.45568C15.4144 2.44713 15.3912 2.44287 15.368 2.44287C15.2887 2.44287 15.213 2.49232 15.1837 2.57166C15.1458 2.6742 15.1983 2.78713 15.3002 2.82494C15.4681 2.88721 15.6341 2.96045 15.794 3.04404C15.8227 3.05869 15.8538 3.06603 15.8844 3.06603C15.9558 3.06603 16.0248 3.02818 16.0595 2.96045C16.1102 2.86463 16.0724 2.74498 15.9759 2.69494C15.8569 2.63268 15.7342 2.57529 15.6091 2.52283L15.6024 2.52037L15.6005 2.51916L15.5963 2.51795L15.5938 2.51674L15.5901 2.5149L15.5877 2.51428L15.5816 2.51182L15.5755 2.50877H15.5743L15.5731 2.50814L15.5682 2.50631L15.5663 2.50568H15.5657L15.562 2.50385V2.50322L15.5597 2.50271Z" fill="#325D7B"/>
<path d="M8.85145 14.1226C8.62746 13.9285 8.29664 13.8125 7.85903 13.774L7.26942 13.7228C7.05883 13.702 6.90993 13.6519 6.82082 13.5744C6.73172 13.4969 6.68778 13.3864 6.68778 13.2424C6.68778 13.0813 6.75004 12.9519 6.87454 12.8518C6.99907 12.7523 7.19192 12.7022 7.45192 12.7022C7.65149 12.7022 7.84071 12.726 8.02078 12.7731C8.20145 12.8195 8.4102 12.9684 8.4102 12.9684C8.45782 12.9934 8.51578 12.983 8.55301 12.9452L8.90579 12.5875C8.93325 12.5594 8.94606 12.521 8.93996 12.4819C8.93387 12.4435 8.91067 12.4105 8.87586 12.3922C8.87586 12.3922 8.59938 12.1755 8.33629 12.1041C8.18188 12.0614 8.01465 12.0339 7.84008 12.0162V11.4858H7.08996V12.0272C7.00512 12.0406 6.9209 12.0565 6.84157 12.0797C6.65051 12.1346 6.48266 12.2176 6.33864 12.3287C6.1952 12.4386 6.08168 12.5747 5.99805 12.7352C5.91504 12.8957 5.87352 13.0788 5.87352 13.2839C5.87352 13.6544 5.98094 13.9315 6.19825 14.1146C6.41371 14.2965 6.72071 14.4076 7.11989 14.4467L7.7925 14.504C7.99758 14.5272 8.14286 14.5791 8.22828 14.6621C8.31496 14.7458 8.35707 14.8593 8.35707 15.0027C8.35707 15.2029 8.27039 15.3488 8.09582 15.444C7.92188 15.538 7.70094 15.5844 7.43543 15.5844C7.22485 15.5844 7.01368 15.5551 6.80004 15.4977C6.58704 15.4391 6.30567 15.195 6.30567 15.195C6.25684 15.1657 6.19457 15.173 6.15368 15.2133L5.77832 15.5887C5.75145 15.6155 5.73805 15.6533 5.74293 15.6912C5.74782 15.729 5.76981 15.7626 5.80274 15.7821C5.80274 15.7821 6.18664 16.1062 6.48024 16.1868C6.67313 16.2393 6.87637 16.2728 7.08996 16.2912V16.9064H7.84008V16.2783C7.9402 16.2649 8.03907 16.2484 8.13305 16.2246C8.34911 16.1685 8.53465 16.0842 8.68969 15.9701C8.84411 15.8572 8.9668 15.7174 9.05528 15.5514C9.14375 15.3854 9.18774 15.1919 9.18774 14.9691C9.18774 14.5987 9.07668 14.3167 8.85145 14.1226Z" fill="#325D7B"/>
<path d="M7.46533 7.89258C3.98389 7.89258 1.16162 10.7148 1.16162 14.1963C1.16162 17.6777 3.98389 20.5 7.46533 20.5C10.9468 20.5 13.769 17.6777 13.769 14.1963C13.769 10.7148 10.9468 7.89258 7.46533 7.89258ZM7.46533 19.5149C4.53197 19.5149 2.14674 17.129 2.14674 14.1963C2.14674 11.2636 4.53201 8.8777 7.46533 8.8777C10.3975 8.8777 12.7839 11.2636 12.7839 14.1963C12.7839 17.129 10.3974 19.5149 7.46533 19.5149Z" fill="#325D7B"/>
<path d="M6.90009 9.99223L6.92571 9.99039C7.10271 9.96781 7.28462 9.95621 7.46528 9.95621C7.51411 9.95621 7.56294 9.95684 7.61177 9.95926H7.61911C7.7247 9.95926 7.812 9.87504 7.81564 9.76883C7.81931 9.6602 7.73384 9.56863 7.62521 9.56496H7.60567H7.60321L7.60075 9.56434H7.60013H7.59829H7.59767H7.59704H7.594H7.59216C7.56286 9.56371 7.53357 9.5625 7.50427 9.5625H7.49939H7.49818H7.49696H7.49634H7.49329H7.49212H7.49091H7.4897H7.48849H7.48728H7.48544H7.48482H7.4836H7.48239H7.48056H7.47993H7.47747H7.47564H7.47501H7.47259H7.47013H7.4695H7.46767H7.46521H7.46275H7.46028H7.45845H7.45782H7.45599H7.45536H7.45306H7.45185H7.45064H7.44942H7.44821H7.447H7.44579H7.44458H7.44337H7.44216H7.44095H7.43974H7.43911H7.43728H7.43482H7.43419H7.43235H7.43052H7.42989H7.42806H7.42743H7.42497H7.42376H7.42255H7.42134H7.42013H7.41892H7.41771H7.4165H7.41528H7.414H7.41278H7.41157H7.41095H7.40911H7.40665H7.40603H7.40419H7.40235H7.40173H7.39989H7.39927L7.39743 9.56313H7.39681H7.3956H7.39446H7.39325H7.39204H7.39083H7.39021H7.38837H7.38716H7.38595H7.38532H7.38349H7.38103H7.37857H7.37673H7.3761L7.37427 9.56375H7.37364H7.37181H7.37118H7.36935H7.36872H7.36751H7.3663H7.36509H7.36446H7.36263H7.36017H7.35954H7.35771H7.35708H7.3554H7.35357H7.35294H7.35048H7.34864H7.34802H7.34618H7.34556H7.34435H7.34314L7.34193 9.56438H7.34071H7.3395H7.33829H7.33708H7.33646H7.33462H7.33216H7.3297H7.32786L7.32724 9.565H7.3254H7.32478H7.32232H7.3211H7.31989H7.31868H7.31747H7.31634H7.31571H7.31388H7.31267H7.31146H7.31083H7.309H7.30716H7.30653H7.30407H7.30345L7.30224 9.56563H7.30161H7.29978H7.29915H7.29794H7.29681H7.2956H7.29439H7.29317L7.29196 9.56625H7.29075H7.29013H7.28829H7.28583H7.28337H7.28153H7.28091H7.27907H7.27845H7.27599H7.27478H7.27357L7.27235 9.56687H7.27114H7.26993H7.26931H7.26747H7.26685H7.26501H7.26439H7.26255H7.26009H7.25775H7.25528L7.25407 9.5675H7.25286H7.25165H7.25103H7.24857H7.24794H7.24673H7.24552H7.24431H7.24368H7.24185H7.23939L7.23692 9.56813H7.23446H7.23263H7.232L7.22775 9.56875H7.22712H7.22591H7.22528H7.22345H7.21868H7.21622L7.21376 9.56938H7.2095H7.20888L7.20767 9.57H7.20646H7.20525H7.20462H7.20036H7.19974H7.1979H7.19544L7.19056 9.57063H7.18872H7.1881L7.18689 9.57125H7.18626H7.182H7.18138H7.17962H7.17716L7.17228 9.57188H7.16982L7.1631 9.5725H7.16126H7.16064H7.1588L7.15392 9.57313H7.15146L7.1429 9.57375H7.14228C7.05255 9.57984 6.96345 9.5884 6.87556 9.6C6.76751 9.61344 6.69122 9.71231 6.70466 9.82035C6.71759 9.91961 6.80243 9.99223 6.90009 9.99223Z" fill="#325D7B"/>
<path d="M5.72701 10.1084C5.69345 10.0376 5.62326 9.99609 5.54939 9.99609C5.52072 9.99609 5.49201 10.0022 5.46455 10.0156C5.3974 10.048 5.3315 10.0816 5.26677 10.117L5.25455 10.123L5.25208 10.1243L5.24841 10.1261V10.1267L5.24595 10.1273L5.24228 10.1298L5.24044 10.131H5.23982L5.23861 10.1316L5.23798 10.1323L5.23615 10.1329L5.23431 10.1341H5.23369L5.23248 10.1353H5.23185L5.23001 10.1365H5.22939L5.22818 10.1377H5.22755L5.2265 10.1383L5.22587 10.1389L5.22404 10.1395L5.22341 10.1402L5.2222 10.1408L5.22158 10.1414H5.22037L5.21974 10.142L5.21853 10.1427L5.21669 10.1439L5.21548 10.1451H5.21427L5.21306 10.1457V10.1463L5.2106 10.147V10.1476L5.20939 10.1482L5.20818 10.1487H5.20755L5.20693 10.1493L5.20447 10.1511L5.20326 10.1518H5.20205L5.20083 10.1524L5.19716 10.1548H5.19654L5.1947 10.1561L5.19044 10.1585L5.18861 10.1597L5.18251 10.1628C5.10318 10.2079 5.02505 10.2549 4.94876 10.305C4.85783 10.3642 4.8322 10.4857 4.8908 10.5772C4.92865 10.6352 4.99212 10.667 5.05681 10.667C5.09345 10.667 5.13005 10.6566 5.16302 10.6352C5.31439 10.5375 5.4731 10.449 5.63482 10.3709C5.7331 10.3238 5.77458 10.2061 5.72701 10.1084Z" fill="#325D7B"/>
<path d="M6.06643 18.2001C5.89674 18.1403 5.72952 18.0695 5.56901 17.9895C5.54034 17.9755 5.51042 17.9688 5.48049 17.9688C5.40846 17.9688 5.33889 18.0084 5.30471 18.0768C5.25588 18.1745 5.29495 18.2929 5.3926 18.3417C5.45241 18.3722 5.51346 18.4009 5.57573 18.4284L5.58182 18.4308L5.58792 18.4339V18.4345L5.59038 18.4351L5.59221 18.4357L5.59284 18.4364H5.59405L5.59467 18.437L5.59651 18.4376L5.59897 18.4388L5.60018 18.4395H5.60139L5.6026 18.4407L5.60506 18.4419L5.6069 18.4425H5.60752L5.60874 18.4431L5.60936 18.4438L5.6112 18.4444L5.61366 18.445V18.4456H5.61487L5.61608 18.4462L5.61729 18.4469H5.61792L5.61975 18.4481H5.62038L5.62159 18.4487L5.62221 18.4493L5.62342 18.45H5.62463L5.62526 18.4506L5.6271 18.4512L5.62772 18.4518H5.62893L5.62956 18.4525L5.63077 18.4531H5.63139L5.63323 18.4543H5.63444L5.63565 18.4549L5.63628 18.4555H5.6369L5.63811 18.4562L5.64057 18.4568V18.4574H5.64178L5.64299 18.458H5.64362L5.64424 18.4587L5.64792 18.4605H5.64913L5.65034 18.4611V18.4618L5.6546 18.4636H5.65522L5.65643 18.4642H5.65706L5.65827 18.4648H5.65889L5.66135 18.4661L5.66256 18.4667H5.66378L5.66499 18.4679L5.66987 18.4697L5.67108 18.4704H5.6717L5.67596 18.4722L5.67842 18.4728L5.68268 18.4753H5.68331L5.68452 18.4759L5.6894 18.4777L5.69061 18.4784H5.69124L5.69733 18.4814H5.69795L5.70405 18.4839L5.70526 18.4851H5.70588L5.71014 18.4863H5.71077L5.71198 18.4875H5.7126L5.71749 18.4893L5.7187 18.49L5.71991 18.4912H5.72053L5.72542 18.493H5.72725L5.73213 18.4955L5.73335 18.4961L5.73823 18.4979L5.73944 18.4986H5.74065L5.74491 18.5004L5.74674 18.501L5.75163 18.5035H5.75284L5.75346 18.5041L5.75467 18.5047H5.7553L5.75897 18.5066L5.76018 18.5072H5.76139V18.5078L5.76565 18.509L5.76627 18.5096H5.76749H5.7687L5.76991 18.5109L5.77237 18.5115L5.77299 18.5121H5.7742L5.77483 18.5127L5.77604 18.5134H5.77725L5.77846 18.514L5.77967 18.5146H5.78088L5.78151 18.5152L5.78213 18.5159H5.78335L5.78518 18.5171H5.78581L5.78702 18.5177H5.78823L5.78944 18.5183H5.79006L5.79069 18.5189L5.79253 18.5196L5.79315 18.5202L5.79436 18.5208H5.79557L5.79678 18.5214H5.79741L5.79924 18.5221H5.79987L5.80171 18.5233L5.80292 18.5239H5.80413L5.80534 18.5245L5.80655 18.5252L5.80776 18.5258H5.80838L5.8096 18.5264L5.81022 18.527L5.81268 18.5277L5.81389 18.5283H5.8151L5.81631 18.5289H5.81694L5.81878 18.5295L5.82124 18.5307L5.82307 18.5314L5.8237 18.532L5.82491 18.5326L5.82737 18.5332L5.82983 18.5345L5.83167 18.5351H5.83229L5.83596 18.5363L5.83842 18.5369C5.87139 18.5497 5.90374 18.5613 5.9367 18.5729C5.95807 18.5803 5.98002 18.5845 6.00202 18.5845C6.0826 18.5845 6.15948 18.5332 6.18756 18.4515C6.22331 18.3478 6.16897 18.2355 6.06643 18.2001Z" fill="#325D7B"/>
<path d="M4.11701 16.798C4.07857 16.7479 4.02057 16.7217 3.96197 16.7217C3.91924 16.7217 3.87713 16.7357 3.84111 16.7632C3.75564 16.8304 3.73978 16.9536 3.80631 17.0397C3.84232 17.0855 3.87892 17.1306 3.91619 17.1758L3.91924 17.1795L3.92045 17.1807L3.92412 17.1843V17.185L3.92533 17.1856V17.1868L3.92654 17.1874V17.188L3.92775 17.1899L3.92896 17.1905V17.1917L3.93017 17.1923V17.193L3.93139 17.1942L3.9326 17.1948L3.93322 17.1954L3.93385 17.1966L3.93447 17.1979H3.9351L3.93631 17.1997L3.93756 17.2008L3.93818 17.2014L3.93881 17.2027L3.94002 17.2033L3.94123 17.2051L3.94244 17.2063L3.94365 17.2075L3.94428 17.2082L3.94674 17.2118L3.94736 17.2125L3.94857 17.2131V17.2137L3.95103 17.2174L3.95342 17.2185C4.03154 17.3101 4.11334 17.3973 4.19818 17.4822C4.23662 17.52 4.2867 17.5396 4.33674 17.5396C4.38803 17.5396 4.43807 17.52 4.47713 17.4816C4.55404 17.4041 4.55283 17.2796 4.47592 17.2027C4.34892 17.0757 4.2281 16.9396 4.11701 16.798Z" fill="#325D7B"/>
<path d="M3.05257 13.9306C3.15206 13.9306 3.23749 13.8555 3.24788 13.7542C3.2662 13.5747 3.29671 13.3959 3.33824 13.2207C3.36265 13.1151 3.29671 13.0096 3.19113 12.9845L3.14534 12.979C3.05624 12.979 2.97566 13.0401 2.95429 13.131C2.90972 13.3208 2.87679 13.5155 2.85601 13.7139C2.84503 13.8213 2.92316 13.919 3.03179 13.9299L3.05257 13.9306Z" fill="#325D7B"/>
<path d="M4.16321 11.5363C4.23157 11.452 4.21813 11.3275 4.13328 11.2591C4.09727 11.2298 4.05332 11.2158 4.00938 11.2158C3.95199 11.2158 3.89586 11.2409 3.8568 11.2884C3.82446 11.3287 3.79332 11.369 3.76219 11.4099L3.75914 11.4141L3.75793 11.4154L3.75426 11.4209H3.75364L3.74938 11.4264L3.74571 11.4319L3.74145 11.4374V11.438L3.73352 11.449C3.68102 11.5192 3.63098 11.5912 3.58336 11.665H3.58274L3.57907 11.6705V11.6712L3.57844 11.6724L3.57598 11.6748V11.6755L3.57535 11.6767L3.57473 11.6779V11.6785L3.57227 11.681L3.57164 11.6822L3.57102 11.6828V11.684H3.56981L3.5686 11.6865V11.6871L3.56797 11.6877L3.56735 11.6889L3.56672 11.6896L3.5661 11.6908L3.56547 11.6914L3.56485 11.6932L3.56422 11.6939L3.5636 11.6945L3.56297 11.6951L3.56235 11.6963L3.56172 11.6975L3.5611 11.6988L3.56047 11.6994L3.55985 11.7006L3.55922 11.7012L3.5586 11.7024L3.55797 11.703L3.55735 11.7049H3.55672L3.5561 11.7067L3.55547 11.7073L3.55485 11.7086H3.55422L3.55176 11.7128C3.53895 11.7323 3.52672 11.7519 3.51512 11.7714C3.45836 11.8642 3.48645 11.9856 3.57922 12.0424C3.61157 12.0626 3.64758 12.0717 3.68297 12.0717C3.74891 12.0717 3.8136 12.0388 3.8502 11.9777C3.94473 11.825 4.04969 11.6766 4.16321 11.5363Z" fill="#325D7B"/>
<path d="M3.32156 15.0994C3.3014 15.0066 3.21964 14.9443 3.12929 14.9443L3.08718 14.948C2.98097 14.9712 2.91324 15.0762 2.93644 15.1824C2.97855 15.3765 3.03289 15.5663 3.09878 15.7512C3.12746 15.8312 3.20316 15.8819 3.28433 15.8819C3.30632 15.8819 3.32828 15.8776 3.35027 15.8703C3.45281 15.8336 3.50589 15.7207 3.46992 15.6182C3.40945 15.4491 3.36003 15.2745 3.32156 15.0994Z" fill="#325D7B"/>
<path d="M9.80903 17.7666C9.77302 17.7666 9.737 17.7764 9.70403 17.7971C9.55204 17.8917 9.39153 17.9778 9.22919 18.0529C9.13032 18.098 9.08638 18.2152 9.13153 18.3141C9.1645 18.3861 9.23653 18.4289 9.31099 18.4289C9.33845 18.4289 9.36591 18.4234 9.39278 18.4112C9.50142 18.3611 9.60825 18.3074 9.71263 18.2494L9.71446 18.2482H9.71509L9.71876 18.2457L9.7206 18.2445H9.72122L9.72489 18.2427L9.72611 18.2415H9.72732L9.72853 18.2403L9.73099 18.2391L9.7322 18.2384L9.73341 18.2378L9.73462 18.2372V18.2366L9.73708 18.2359V18.2353L9.73829 18.2347L9.7395 18.2341L9.74013 18.2334L9.74075 18.2328L9.74259 18.2322L9.74321 18.2316L9.74443 18.2309H9.74564L9.74626 18.2303L9.74689 18.2297L9.7481 18.2291L9.74993 18.2279H9.75056L9.75177 18.2272V18.2266L9.75298 18.226H9.7536L9.75665 18.2241L9.75786 18.2235L9.75907 18.2229H9.7597L9.76396 18.2198L9.76517 18.2192C9.81521 18.1905 9.86466 18.1606 9.91349 18.1307C10.0056 18.0727 10.0337 17.9519 9.97634 17.8591C9.93841 17.8002 9.87431 17.7666 9.80903 17.7666Z" fill="#325D7B"/>
<path d="M11.3117 16.4167C11.2788 16.396 11.2422 16.3862 11.2055 16.3862C11.1408 16.3862 11.0774 16.418 11.0395 16.4766C10.9431 16.6279 10.8356 16.7751 10.7203 16.9124C10.6507 16.996 10.6617 17.1205 10.7453 17.1901C10.782 17.2212 10.8271 17.2358 10.8711 17.2358C10.9278 17.2358 10.9834 17.2121 11.0224 17.165C11.125 17.0436 11.2202 16.916 11.3093 16.7835L11.3105 16.7817H11.3111L11.313 16.778L11.3136 16.7774L11.3148 16.7756L11.316 16.7744L11.3172 16.7719H11.3179L11.3185 16.7707L11.3191 16.7695L11.3197 16.7683H11.3203L11.3215 16.7664V16.7658L11.3227 16.7646V16.764L11.3239 16.7628V16.7621L11.3251 16.7609V16.7603L11.3263 16.7591V16.7585L11.3275 16.7572V16.756L11.3288 16.7548L11.3294 16.7542L11.33 16.7536V16.7524L11.3312 16.7517L11.3337 16.7475L11.3343 16.7463H11.3349L11.3374 16.742V16.7414L11.3386 16.7402L11.3423 16.7347V16.734L11.3716 16.6889C11.4302 16.5974 11.4033 16.4753 11.3117 16.4167Z" fill="#325D7B"/>
<path d="M11.8166 13.5239L11.8551 13.5202C11.9618 13.4989 12.0308 13.3957 12.0101 13.2883L12.0052 13.2645V13.2639V13.2627H12.0046L12.004 13.2578V13.2571L12.0033 13.2559V13.2553L12.0027 13.2504L12.0021 13.2498L12.0015 13.2486V13.248V13.2468V13.2461L12.0008 13.2431L12.0002 13.2419V13.2413V13.24L11.9996 13.2388V13.2382L11.999 13.2364V13.2352V13.2346V13.2334L11.9983 13.2322L11.9977 13.231V13.2298V13.2286L11.9971 13.2273V13.2261L11.9965 13.2249V13.2243V13.2231V13.2225L11.9952 13.2206V13.22V13.2182V13.2175V13.2163L11.9946 13.2151L11.994 13.2133V13.2114V13.2108L11.9934 13.209L11.9927 13.2084V13.2065L11.9921 13.2041L11.9915 13.2022V13.2016V13.1998L11.9906 13.1955V13.1949L11.9899 13.1931V13.1925L11.9881 13.1857V13.1839L11.9869 13.179L11.9863 13.1772L11.9845 13.1705V13.1699L11.9833 13.1613H11.9826C11.9601 13.06 11.9332 12.9599 11.9039 12.8623L11.9014 12.8531L11.8972 12.8403V12.8397L11.8947 12.8318H11.8941L11.8929 12.825V12.8245L11.8917 12.8226L11.8898 12.8159L11.888 12.8098V12.8092L11.8868 12.8073L11.8856 12.8031V12.8025L11.8849 12.8006L11.8843 12.8L11.8837 12.7963H11.8831V12.7939L11.8818 12.792V12.7914V12.7896L11.8806 12.7877V12.7871L11.88 12.7853V12.7846L11.8794 12.7828L11.8782 12.781V12.7804V12.7791V12.7779L11.877 12.7767V12.7761L11.8763 12.7743L11.8757 12.7724V12.7718V12.77L11.8745 12.7693V12.7681V12.7675L11.8734 12.7659V12.7652V12.7634L11.8727 12.7628L11.8721 12.7616V12.7609V12.7591L11.8709 12.7585V12.7573V12.7561L11.8703 12.7548L11.8697 12.7542V12.7536L11.869 12.7518L11.8684 12.7505V12.7499V12.7487L11.8678 12.7475L11.8673 12.747V12.7457V12.7445L11.8661 12.7427V12.7421V12.7409L11.8654 12.7402L11.8648 12.739V12.7384L11.8642 12.7366L11.8636 12.7354V12.7341V12.7335L11.8629 12.7329L11.8623 12.7317L11.8611 12.7274V12.7268L11.8605 12.7256H11.8599V12.7244V12.7232L11.8586 12.7207V12.7201V12.7189L11.8574 12.7177C11.83 12.6353 11.7537 12.584 11.6713 12.584C11.6505 12.584 11.6292 12.5864 11.6084 12.5938C11.5052 12.6286 11.4497 12.7402 11.4845 12.8434C11.5413 13.0137 11.5889 13.1895 11.6231 13.3652C11.6427 13.4592 11.7245 13.5239 11.8166 13.5239Z" fill="#325D7B"/>
<path d="M7.95357 18.4097L7.93158 18.4109C7.77775 18.428 7.62092 18.4365 7.46525 18.4365C7.44084 18.4365 7.4158 18.4359 7.39139 18.4359H7.38834C7.28092 18.4359 7.19303 18.5213 7.19119 18.6288C7.18936 18.738 7.27541 18.8271 7.38408 18.8296C7.40482 18.8302 7.42498 18.8302 7.44572 18.8302H7.44635H7.44818H7.45185H7.45307H7.45428H7.45549H7.4567H7.45791H7.45975H7.46037H7.46221H7.46283H7.46529H7.46713H7.46775H7.46896H7.46959H7.4708H7.47143H7.47264H7.47385H7.47506H7.47568H7.47689H7.47752H7.47873H7.47994H7.48057H7.48119H7.4824H7.48361H7.48482H7.48545H7.48666H7.48728H7.4885H7.48971H7.49338H7.49521H7.49584H7.49705H7.49826H7.49947H7.50068H7.50189H7.50311H7.50432H7.50494H7.50557H7.50678H7.50799H7.5092H7.51041H7.51162H7.51283H7.51346H7.51529H7.51955H7.52018H7.52139H7.52201H7.52322H7.52385H7.52506H7.52627H7.52748H7.52869H7.5299H7.53119H7.53182H7.53365L7.53486 18.8296H7.53607H7.53728H7.53791H7.53975H7.54584H7.54768H7.54951H7.55014H7.55135H7.55197H7.55318H7.55439H7.5556L7.55744 18.829H7.55807H7.55928H7.5599H7.56174H7.56295H7.56416H7.56537H7.566H7.57392H7.57576H7.5776H7.58006H7.58127H7.58248H7.58369H7.58615H7.58736H7.58982L7.60568 18.8278H7.60814H7.60998C7.73268 18.8241 7.85475 18.8155 7.97498 18.8027C8.08303 18.7905 8.16115 18.6935 8.14892 18.5848C8.13787 18.4847 8.05244 18.4097 7.95357 18.4097Z" fill="#325D7B"/>
<path d="M11.8928 14.5393L11.8696 14.5381C11.7708 14.5381 11.6859 14.6113 11.6743 14.7114C11.6523 14.8897 11.6194 15.0685 11.5755 15.2425C11.548 15.348 11.6121 15.4549 11.7171 15.4817L11.7659 15.4878C11.8538 15.4878 11.9337 15.4286 11.9563 15.3401C11.9667 15.2998 11.9758 15.2602 11.9856 15.2205V15.2198V15.218L11.9868 15.2131V15.2113L11.9874 15.2107L11.9881 15.2095V15.2088V15.2064L11.9887 15.2057L11.9893 15.2045V15.2033V15.2027V15.2015V15.2003L11.9899 15.1991L11.9906 15.1979V15.1966V15.196V15.1948L11.9912 15.1936L11.9918 15.1924V15.1918V15.1899V15.1893L11.993 15.1875V15.1868V15.1856V15.185L11.9942 15.1807V15.1801V15.1783L11.9955 15.1764L11.9961 15.1716L11.9967 15.1697V15.1691L11.9979 15.163C12.026 15.03 12.0486 14.8951 12.0651 14.7584C12.0784 14.6504 12.0015 14.5527 11.8928 14.5393Z" fill="#325D7B"/>
<path d="M8.93257 10.2176C9.10105 10.2799 9.26706 10.3531 9.42694 10.4367C9.45562 10.4514 9.48675 10.4587 9.5173 10.4587C9.58812 10.4587 9.65706 10.4209 9.69245 10.3531C9.74312 10.2573 9.70526 10.1377 9.60882 10.0876C9.48917 10.0254 9.3671 9.96799 9.2414 9.91553L9.2353 9.91307L9.23347 9.91186H9.23284L9.22917 9.91064L9.22671 9.90943L9.22245 9.9076L9.22062 9.90697L9.21452 9.90451H9.2139L9.2078 9.90146H9.20718L9.20534 9.90084L9.20108 9.899L9.19862 9.89838L9.19495 9.89654V9.89592L9.19249 9.89529L9.18823 9.89346H9.18761L9.1864 9.89283V9.89221L9.17968 9.89037L9.17296 9.88732C9.13878 9.87389 9.10398 9.86045 9.06921 9.84826C9.04663 9.83971 9.02405 9.83545 9.00085 9.83545C8.92089 9.83545 8.84581 9.8849 8.81651 9.96424C8.77878 10.0669 8.83065 10.1798 8.93257 10.2176Z" fill="#325D7B"/>
<path d="M11.0151 11.7312C11.0567 11.7312 11.0975 11.7183 11.1335 11.6915C11.2202 11.6268 11.2373 11.5029 11.1726 11.4156C11.1061 11.3277 11.0371 11.2422 10.9651 11.1592H10.9644L10.9614 11.1555L10.9602 11.1543V11.1537L10.9571 11.1506L10.9565 11.15L10.9553 11.1488L10.9541 11.147L10.9529 11.1451V11.1446L10.9517 11.1434H10.951L10.9492 11.1422L10.948 11.1403V11.1397L10.9468 11.1385V11.1379L10.9456 11.1367L10.9444 11.136L10.9437 11.1348H10.9431L10.9419 11.1336V11.133L10.9407 11.1318V11.1312L10.9395 11.1299L10.9383 11.1293L10.9376 11.1281L10.937 11.1275L10.9364 11.1269L10.9358 11.1262L10.9346 11.1244L10.9333 11.1238V11.1226L10.9321 11.1219V11.1213L10.9309 11.1207L10.9297 11.1196L10.9291 11.1189L10.9284 11.1177L10.9278 11.1171L10.9272 11.1165L10.9247 11.1134L10.9235 11.1128L10.9229 11.1116H10.9223L10.9198 11.1079L10.9192 11.1073L10.9185 11.1067H10.9179L10.9149 11.103V11.1024L10.9137 11.1012V11.1005L10.91 11.0975L10.9088 11.0963V11.0956L10.9051 11.0926V11.092L10.9039 11.0908L10.8998 11.086H10.8991L10.8955 11.0811L10.8948 11.0805L10.8857 11.0707V11.0701C10.8539 11.0359 10.821 11.0011 10.788 10.9669C10.7496 10.9272 10.6983 10.9077 10.6471 10.9077C10.5976 10.9077 10.5482 10.926 10.5097 10.9633C10.4316 11.039 10.4304 11.1635 10.506 11.2416C10.6306 11.3704 10.749 11.5089 10.8576 11.6524C10.8955 11.7037 10.9553 11.7312 11.0151 11.7312Z" fill="#325D7B"/>
<path d="M9.51311 5.58691C9.42401 5.58691 9.34284 5.64797 9.32147 5.73891C9.2769 5.92871 9.24397 6.12344 9.22319 6.3218C9.21221 6.42984 9.29092 6.52688 9.39897 6.53785L9.41971 6.53848C9.51921 6.53848 9.60526 6.4634 9.61503 6.36207C9.63335 6.18262 9.66385 6.00379 9.70538 5.82922C9.72979 5.72301 9.66448 5.61742 9.55889 5.59238L9.51311 5.58691Z" fill="#325D7B"/>
<path d="M10.2241 3.89615C10.1923 3.93643 10.1606 3.97674 10.1301 4.0176L10.1264 4.02186L10.1252 4.02307L10.1215 4.02858L10.1173 4.03408L10.113 4.04018L10.1093 4.04506V4.04569L10.1008 4.05666C10.0483 4.12686 9.99823 4.19889 9.95061 4.27272L9.94694 4.27822V4.27885L9.94573 4.28006L9.94389 4.28252V4.28315L9.94327 4.28436L9.94206 4.28557V4.28619L9.93959 4.28865V4.28986L9.93897 4.29049L9.93835 4.2917H9.93772L9.93651 4.29416L9.93588 4.29479V4.29541L9.93467 4.29662V4.29725L9.93346 4.29846V4.29908L9.93225 4.30092V4.30154L9.93104 4.30217V4.30279L9.92983 4.30401V4.30522L9.92862 4.30643V4.30705L9.92741 4.30889L9.9262 4.3101V4.31072L9.92499 4.31256L9.92377 4.3144V4.31502L9.92256 4.31623V4.31686L9.9201 4.32053C9.90729 4.34006 9.89448 4.35959 9.88288 4.37975C9.82612 4.4719 9.85479 4.59338 9.94756 4.65014C9.97991 4.67029 10.0153 4.67944 10.0507 4.67944C10.1167 4.67944 10.1814 4.64647 10.2186 4.58545C10.3126 4.43287 10.4176 4.28455 10.5305 4.14416C10.5988 4.05994 10.5854 3.93541 10.5012 3.86705C10.4645 3.83776 10.4206 3.82373 10.3773 3.82373C10.3199 3.8235 10.2631 3.84854 10.2241 3.89615Z" fill="#325D7B"/>
<path d="M15.4987 10.9218C15.5323 10.9938 15.6037 11.0366 15.6782 11.0366C15.7063 11.0366 15.7337 11.0311 15.76 11.0189C15.8692 10.9688 15.976 10.9151 16.0798 10.8571L16.0823 10.8559L16.0859 10.8534L16.0884 10.8528L16.0921 10.8504L16.0939 10.8491H16.0945L16.0958 10.8479L16.0982 10.8467L16.0994 10.8461L16.1006 10.8455L16.1018 10.8448L16.1025 10.8442L16.1043 10.8436V10.843L16.1055 10.8423L16.1067 10.8417L16.1079 10.8411V10.8405L16.1104 10.8398V10.8392L16.1116 10.8386H16.1128L16.1134 10.838L16.1141 10.8373L16.1153 10.8367L16.1171 10.8355H16.1177L16.119 10.8349H16.1196L16.1208 10.8337H16.1214L16.1239 10.8318L16.1251 10.8312L16.1269 10.8306L16.1312 10.8275L16.133 10.8269C16.1825 10.7982 16.2325 10.7683 16.2813 10.7384C16.3729 10.6804 16.401 10.5596 16.3436 10.4668C16.3058 10.4076 16.2423 10.374 16.1764 10.374C16.141 10.374 16.1043 10.3838 16.072 10.4045C15.9194 10.4991 15.7595 10.5852 15.5965 10.6603C15.4975 10.7057 15.4536 10.8229 15.4987 10.9218Z" fill="#325D7B"/>
<path d="M17.088 9.51979C17.0178 9.60342 17.0294 9.72791 17.1124 9.79748C17.1491 9.82861 17.1942 9.84326 17.2388 9.84326C17.2955 9.84326 17.3511 9.81947 17.3895 9.77244C17.4921 9.651 17.5873 9.52342 17.6764 9.39096H17.677L17.6782 9.38912L17.6807 9.38545L17.6813 9.38482L17.6819 9.38361H17.6826L17.6838 9.38178L17.685 9.37932L17.6856 9.37811L17.6862 9.37689L17.6874 9.37627V9.37564L17.6887 9.37381V9.37318L17.6899 9.37197V9.37135L17.6911 9.37014V9.36951L17.6923 9.3683V9.36768L17.6935 9.36647V9.36584L17.6947 9.36463V9.36342L17.6959 9.36221L17.6965 9.36158L17.6972 9.36096L17.6978 9.35975L17.6984 9.35912L17.7009 9.35486L17.7021 9.35365L17.7046 9.34939V9.34877L17.7058 9.34814V9.34768L17.7094 9.34217V9.34154L17.7394 9.29639C17.7973 9.20482 17.7711 9.08275 17.6789 9.02416C17.6466 9.00342 17.6094 8.99365 17.5733 8.99365C17.508 8.99365 17.4446 9.02541 17.4067 9.084C17.3102 9.23537 17.2028 9.38248 17.088 9.51979Z" fill="#325D7B"/>
<path d="M18.2258 5.32629L18.2252 5.32508C18.1977 5.2427 18.1208 5.19141 18.0385 5.19141C18.0177 5.19141 17.9963 5.19387 17.9756 5.20117C17.8724 5.23598 17.8169 5.34766 17.8517 5.45082C17.9091 5.62109 17.9561 5.79687 17.9909 5.97266C18.0098 6.06664 18.0916 6.13137 18.1838 6.13137L18.2222 6.1277C18.329 6.10633 18.398 6.00316 18.3772 5.89574L18.3724 5.87195V5.87133V5.87012L18.3711 5.86523V5.86461V5.8634V5.86277L18.3699 5.85789V5.85727L18.3693 5.85664L18.3687 5.85543V5.85422V5.85359L18.3681 5.85055L18.3674 5.84934V5.84871V5.8475V5.84629V5.84566L18.3668 5.84383L18.3662 5.84262V5.84199V5.84078V5.83957L18.365 5.83836V5.83715V5.83594V5.83473L18.3643 5.83352V5.83227L18.3637 5.83164V5.83043V5.8298L18.3631 5.82797V5.82734L18.3625 5.82551V5.82488V5.82367V5.82246L18.3613 5.82125V5.82062V5.81879V5.81816L18.3606 5.81633V5.8157L18.36 5.81387V5.81141L18.3588 5.80957V5.80895V5.80711L18.3576 5.80285V5.80223V5.80039L18.357 5.79977L18.3558 5.79367L18.3551 5.79305V5.79121L18.3539 5.78633V5.78449L18.3521 5.77777V5.77715L18.3502 5.76859C18.327 5.66727 18.3008 5.56719 18.2709 5.46953L18.2685 5.46039L18.2648 5.44758V5.44695L18.2617 5.43902L18.2599 5.4323V5.43168L18.2587 5.42984L18.2575 5.42312L18.255 5.41703V5.41641L18.2544 5.41457H18.2539L18.2527 5.41031V5.40969V5.40785L18.2521 5.40723L18.2509 5.40355L18.2502 5.40109L18.2496 5.39926L18.249 5.39863V5.3968L18.2478 5.39496V5.39434V5.3925L18.2472 5.39187L18.2465 5.39066V5.39004L18.2459 5.3882V5.38758L18.2453 5.38637V5.38516L18.2447 5.38395L18.244 5.38332V5.38148L18.2428 5.37965V5.37902V5.37719L18.2422 5.37656L18.2416 5.37535V5.37473L18.241 5.37289V5.37227L18.2403 5.37043V5.3698L18.2397 5.36859L18.2391 5.36797V5.36613L18.2385 5.36551L18.2378 5.3643V5.36352V5.3623L18.2372 5.36168L18.2366 5.36105V5.35922L18.236 5.35801L18.2353 5.35738V5.35617V5.35496L18.2347 5.35434L18.2344 5.35312V5.35191L18.2338 5.35008L18.2331 5.34945V5.34824V5.34762L18.2319 5.34641V5.34578V5.34398L18.2307 5.34277V5.34156V5.34094L18.2301 5.34031V5.3391L18.2283 5.33484V5.33422V5.33301H18.2276L18.227 5.3318V5.33059L18.2258 5.32812V5.3275V5.32629H18.2258Z" fill="#325D7B"/>
<path d="M13.752 11.4371C13.7728 11.4377 13.7929 11.4377 13.8137 11.4377H13.8143H13.8155H13.8161H13.8192H13.8204H13.8216H13.8228H13.824H13.8252H13.8271H13.8277H13.8301H13.8326H13.8344H13.8351H13.8363H13.8375H13.8387H13.8405H13.8412H13.8424H13.8436H13.8442H13.8448H13.846H13.8473H13.8485H13.8491H13.8497H13.8509H13.8521H13.8534H13.8546H13.8558H13.857H13.8607H13.8613H13.8631H13.8643H13.8655H13.8667H13.8674H13.8686H13.8692H13.8704H13.8716H13.8728H13.8735H13.8741H13.8753H13.8765H13.8771H13.8784H13.879H13.8802H13.8814H13.8826H13.8869H13.8875H13.8887H13.8899H13.8911H13.8923H13.8935H13.8948H13.8954H13.8966H13.8972H13.8985H13.8997H13.9009H13.9016L13.9022 11.4371H13.9034H13.9046H13.9052H13.9071H13.9132H13.915H13.9156H13.9168H13.918H13.9192H13.9211H13.9217H13.9229L13.9254 11.4364H13.9266H13.9278H13.929H13.9296H13.9309H13.9315H13.9327H13.9333H13.9412H13.9431H13.9437H13.9449H13.9455H13.9474H13.9492H13.9498H13.951H13.9535H13.9547H13.9553H13.9572L13.973 11.4352H13.9755H13.978C14.1 11.4315 14.2221 11.423 14.343 11.4102C14.4504 11.3979 14.5285 11.3009 14.5169 11.1929C14.5059 11.0922 14.4205 11.0171 14.321 11.0171L14.2996 11.0183C14.1458 11.0354 13.9889 11.0439 13.8327 11.0439C13.8083 11.0439 13.7839 11.0433 13.7594 11.0433H13.7558C13.6484 11.0433 13.5605 11.1294 13.5586 11.2362C13.5567 11.3455 13.6434 11.4346 13.752 11.4371Z" fill="#325D7B"/>
<path d="M18.2369 7.14551C18.1386 7.14551 18.0537 7.21875 18.0416 7.31887C18.0196 7.49711 17.9866 7.67594 17.9427 7.84988C17.9158 7.95547 17.9793 8.0623 18.0849 8.08914L18.1331 8.09523C18.221 8.09523 18.3016 8.03602 18.3242 7.94754C18.3346 7.90727 18.3437 7.86758 18.3528 7.82789V7.82727V7.82543L18.3541 7.82055L18.3547 7.81871L18.3553 7.81809V7.81687V7.81625L18.3559 7.81379L18.3566 7.81316V7.81195V7.81074V7.81012V7.80891L18.3572 7.8077L18.3578 7.80648V7.80527V7.80406V7.80344L18.3584 7.80223L18.3591 7.80102V7.7998L18.3597 7.79734V7.79672L18.3603 7.79488V7.79426V7.79305V7.79242L18.3615 7.78816V7.7857H18.3621L18.3628 7.78387L18.364 7.77898V7.77715V7.77652L18.3652 7.77043C18.3933 7.63738 18.4165 7.5025 18.4323 7.36578C18.4458 7.25773 18.3689 7.16008 18.2608 7.14668L18.2369 7.14551Z" fill="#325D7B"/>
<path d="M17.2529 3.67814V3.67752C17.2211 3.64334 17.1882 3.60854 17.1552 3.57436C17.1168 3.53467 17.0661 3.51514 17.0142 3.51514C16.9648 3.51514 16.9154 3.53346 16.8769 3.57068C16.7988 3.64639 16.7976 3.7715 16.8732 3.849C16.9983 3.97779 17.1167 4.11635 17.2248 4.25979C17.2632 4.31107 17.3225 4.33854 17.3823 4.33854C17.4238 4.33854 17.4653 4.32572 17.5007 4.29885C17.5873 4.23416 17.605 4.11084 17.5397 4.02295C17.4738 3.93506 17.4042 3.84959 17.3322 3.76658L17.3291 3.76291H17.3285L17.3273 3.7617V3.76107L17.3248 3.75803L17.3242 3.7574L17.323 3.75619H17.3224L17.3212 3.75436L17.32 3.75252V3.75201L17.3187 3.7508H17.3181L17.3169 3.74959H17.3164L17.3151 3.74775V3.74713L17.3139 3.74592V3.74529L17.3127 3.74408H17.3121L17.3108 3.74225H17.3102L17.309 3.74104V3.74041L17.3078 3.7392V3.73857L17.3066 3.73736L17.3054 3.73674V3.73611L17.3042 3.7349L17.3035 3.73428L17.3029 3.73365L17.3017 3.73182L17.3011 3.73119L17.3005 3.72998L17.2998 3.72936L17.2992 3.72873L17.298 3.72811L17.2968 3.72697V3.72635L17.2956 3.72572V3.72451L17.2944 3.72389L17.2919 3.72084L17.2913 3.72021L17.2907 3.719H17.2895L17.287 3.71533V3.71471L17.2858 3.71408L17.2821 3.71041V3.70979L17.2809 3.70857L17.2773 3.7049L17.276 3.70369V3.70318L17.2724 3.70014V3.69951L17.2717 3.6983H17.2711L17.2675 3.69342H17.2668L17.2626 3.68854V3.68791L17.2529 3.67814Z" fill="#325D7B"/>
<path d="M2.97559 5.32973C3.49195 4.56617 4.1377 3.89906 4.87746 3.35281L5.33645 4.32754L7.95547 1.58461L3.96312 1.4082L4.4502 2.44336C3.55297 3.07691 2.77539 3.86793 2.16016 4.77855C1.18605 6.21898 0.617188 7.95852 0.617188 9.82738H1.6023C1.6023 8.1593 2.10891 6.61449 2.97559 5.32973Z" fill="#325D7B"/>
<path d="M19.3977 11.665C19.3977 13.2831 18.9216 14.7852 18.1013 16.0468C17.5715 16.861 16.8953 17.5714 16.114 18.1464L15.746 17.3639L13.127 20.1068L17.1199 20.2832L16.54 19.0503C17.483 18.3869 18.2966 17.5519 18.9265 16.5839C19.847 15.1691 20.3829 13.4772 20.3829 11.665H19.3977Z" fill="#325D7B"/>
<path d="M7.53123 6.9093C7.86631 6.91234 8.19529 6.93797 8.51877 6.98438C8.51631 6.92457 8.51389 6.86473 8.51389 6.80371C8.51389 3.87098 10.8997 1.48512 13.8325 1.48512C16.7652 1.48512 19.1511 3.87098 19.1511 6.80371C19.1511 9.53078 17.0881 11.783 14.4416 12.0863C14.5362 12.4 14.6113 12.7217 14.6631 13.0513C17.7521 12.6441 20.1362 10.0032 20.1362 6.80367C20.1362 3.32227 17.314 0.5 13.8325 0.5C10.3511 0.5 7.52881 3.32227 7.52881 6.80371C7.52881 6.8391 7.53123 6.87391 7.53123 6.9093Z" fill="#325D7B"/>
<path d="M14.1871 4.68945H12.917C12.7143 4.68945 12.5496 4.85363 12.5496 5.05629V8.80078C12.5496 9.00344 12.7144 9.16762 12.917 9.16762H13.1013C13.304 9.16762 13.4687 9.00344 13.4687 8.80078V7.74672H14.1871C15.1491 7.74672 15.9321 7.06066 15.9321 6.21777C15.9321 5.37551 15.1491 4.68945 14.1871 4.68945ZM14.1871 6.94164H13.4687V5.49387H14.1871C14.6431 5.49387 15.013 5.81859 15.013 6.21773C15.0129 6.61754 14.6431 6.94164 14.1871 6.94164Z" fill="#325D7B"/>
</g>
<defs>
<clipPath id="clip0_266_1811">
<rect width="20" height="20" fill="white" transform="translate(0.5 0.5)"/>
</clipPath>
</defs>
</svg>
