<svg width="21" height="21" viewBox="0 0 21 21" fill="none" xmlns="http://www.w3.org/2000/svg">
<g clip-path="url(#clip0_174_6359)">
<path d="M10.5001 18.8332C5.89758 18.8332 2.16675 15.1023 2.16675 10.4998C2.16675 5.89734 5.89758 2.1665 10.5001 2.1665C15.1026 2.1665 18.8334 5.89734 18.8334 10.4998C18.8334 15.1023 15.1026 18.8332 10.5001 18.8332ZM10.5001 17.1665C12.2682 17.1665 13.9639 16.4641 15.2141 15.2139C16.4644 13.9636 17.1667 12.2679 17.1667 10.4998C17.1667 8.73173 16.4644 7.03604 15.2141 5.78579C13.9639 4.53555 12.2682 3.83317 10.5001 3.83317C8.73197 3.83317 7.03628 4.53555 5.78604 5.78579C4.53579 7.03604 3.83341 8.73173 3.83341 10.4998C3.83341 12.2679 4.53579 13.9636 5.78604 15.2139C7.03628 16.4641 8.73197 17.1665 10.5001 17.1665ZM9.66675 12.9998H11.3334V14.6665H9.66675V12.9998ZM9.66675 6.33317H11.3334V11.3332H9.66675V6.33317Z" fill="#325D7B"/>
</g>
<defs>
<clipPath id="clip0_174_6359">
<rect width="20" height="20" fill="white" transform="translate(0.5 0.5)"/>
</clipPath>
</defs>
</svg>
